<?xml version="1.0" encoding="UTF-8"?>
<!DOCTYPE svg PUBLIC "-//W3C//DTD SVG 1.1//EN" "http://www.w3.org/Graphics/SVG/1.1/DTD/svg11.dtd">
<svg xmlns="http://www.w3.org/2000/svg" version="1.1" width="1996px" height="1976px" style="shape-rendering:geometricPrecision; text-rendering:geometricPrecision; image-rendering:optimizeQuality; fill-rule:evenodd; clip-rule:evenodd" xmlns:xlink="http://www.w3.org/1999/xlink">
<g><path style="opacity:1" fill="#922c3c" d="M -0.5,-0.5 C 664.833,-0.5 1330.17,-0.5 1995.5,-0.5C 1995.5,658.167 1995.5,1316.83 1995.5,1975.5C 1330.17,1975.5 664.833,1975.5 -0.5,1975.5C -0.5,1316.83 -0.5,658.167 -0.5,-0.5 Z"/></g>
<g><path style="opacity:1" fill="#fcf9fa" d="M 579.5,911.5 C 602.287,960.481 605.62,1010.81 589.5,1062.5C 567.597,1122.9 526.597,1164.74 466.5,1188C 392.579,1211.13 325.912,1198.13 266.5,1149C 220.758,1106.65 198.425,1054.15 199.5,991.5C 199.5,987.833 199.5,984.167 199.5,980.5C 202.412,956.198 209.079,932.864 219.5,910.5C 246.242,859.779 286.908,825.446 341.5,807.5C 343.5,807.167 345.5,806.833 347.5,806.5C 426.771,788.205 494.271,808.538 550,867.5C 561.592,881.026 571.425,895.692 579.5,911.5 Z"/></g>
<g><path style="opacity:1" fill="#8a2e3c" d="M 316.5,889.5 C 296.804,890.154 277.471,889.488 258.5,887.5C 283.829,855.326 316.495,834.493 356.5,825C 340.234,844.701 326.901,866.201 316.5,889.5 Z"/></g>
<g><path style="opacity:1" fill="#7d2537" d="M 495.5,847.5 C 494.883,847.611 494.383,847.944 494,848.5C 483.531,842.838 472.698,837.838 461.5,833.5C 460.833,833.667 460.167,833.833 459.5,834C 460.517,835.049 460.684,836.216 460,837.5C 458.16,836.167 457.66,836.334 458.5,838C 456.944,838.72 455.944,839.887 455.5,841.5C 451.03,836.187 446.697,830.687 442.5,825C 461.7,828.9 479.366,836.4 495.5,847.5 Z"/></g>
<g><path style="opacity:1" fill="#8b2d3b" d="M 495.5,847.5 C 513.586,858.574 529.252,872.574 542.5,889.5C 541.675,890.386 540.675,890.719 539.5,890.5C 538.048,889.698 536.382,889.198 534.5,889C 517.833,888.667 501.167,888.333 484.5,888C 482.114,887.716 481.448,886.716 482.5,885C 479.823,883.537 478.823,881.537 479.5,879C 477.973,875.989 475.973,873.489 473.5,871.5C 467.503,861.508 461.503,851.508 455.5,841.5C 455.944,839.887 456.944,838.72 458.5,838C 457.66,836.334 458.16,836.167 460,837.5C 460.684,836.216 460.517,835.049 459.5,834C 460.167,833.833 460.833,833.667 461.5,833.5C 472.698,837.838 483.531,842.838 494,848.5C 494.383,847.944 494.883,847.611 495.5,847.5 Z"/></g>
<g><path style="opacity:1" fill="#8c2f3d" d="M 388.5,820.5 C 389.461,822.265 389.795,824.265 389.5,826.5C 388.503,847.327 388.169,868.327 388.5,889.5C 371.799,890.152 355.466,889.485 339.5,887.5C 351.614,862.057 367.948,839.723 388.5,820.5 Z"/></g>
<g><path style="opacity:1" fill="#7f2631" d="M 341.5,807.5 C 286.908,825.446 246.242,859.779 219.5,910.5C 221.403,904.191 223.736,898.024 226.5,892C 225.185,890.605 225.519,889.605 227.5,889C 227.167,888.667 226.833,888.333 226.5,888C 235.358,874.472 245.691,862.138 257.5,851C 269.616,842.711 281.283,833.878 292.5,824.5C 297.547,822.238 302.88,820.905 308.5,820.5C 308.5,819.5 308.5,818.5 308.5,817.5C 319.355,813.918 330.355,810.585 341.5,807.5 Z"/></g>
<g><path style="opacity:1" fill="#882936" d="M 1450.5,938.5 C 1448.05,937.106 1445.38,936.272 1442.5,936C 1434.17,935.667 1425.83,935.333 1417.5,935C 1416.58,934.626 1415.75,934.126 1415,933.5C 1413.03,929.768 1412.03,925.768 1412,921.5C 1411.33,912.833 1411.33,904.167 1412,895.5C 1412.16,890.01 1414.99,887.176 1420.5,887C 1435.23,886.95 1449.9,886.284 1464.5,885C 1466.88,880.495 1467.88,875.662 1467.5,870.5C 1467.46,866.111 1466.96,861.777 1466,857.5C 1464.51,855.996 1462.68,855.163 1460.5,855C 1433.18,853.188 1405.84,853.021 1378.5,854.5C 1377.74,853.732 1376.74,853.232 1375.5,853C 1378.29,851.111 1380.29,848.611 1381.5,845.5C 1389.66,844.671 1397.99,844.171 1406.5,844C 1407,843.5 1407.5,843 1408,842.5C 1409.8,842.721 1411.63,843.054 1413.5,843.5C 1429.17,840.949 1445,840.949 1461,843.5C 1461.33,843.167 1461.67,842.833 1462,842.5C 1466.65,846.495 1470.65,851.162 1474,856.5C 1475.15,863.202 1475.98,869.702 1476.5,876C 1475.67,879.793 1474.84,883.627 1474,887.5C 1468.98,890.623 1463.48,892.79 1457.5,894C 1450.19,894.393 1443.02,894.56 1436,894.5C 1431.36,892.562 1426.53,892.062 1421.5,893C 1420.21,894.41 1419.05,895.91 1418,897.5C 1415.46,906.801 1415.13,916.134 1417,925.5C 1418.48,928.044 1420.65,929.71 1423.5,930.5C 1424.17,930.167 1424.83,929.833 1425.5,929.5C 1430.14,931.18 1434.8,931.513 1439.5,930.5C 1445,930.213 1449.34,932.213 1452.5,936.5C 1452.25,937.713 1451.59,938.38 1450.5,938.5 Z"/></g>
<g><path style="opacity:1" fill="#dfbabb" d="M 388.5,820.5 C 388.56,819.957 388.893,819.624 389.5,819.5C 390.829,843.33 390.829,866.997 389.5,890.5C 389.5,869.167 389.5,847.833 389.5,826.5C 389.795,824.265 389.461,822.265 388.5,820.5 Z"/></g>
<g><path style="opacity:1" fill="#892a37" d="M 1591.5,881.5 C 1590.32,881.719 1589.32,881.386 1588.5,880.5C 1588.22,878.241 1587.22,876.574 1585.5,875.5C 1578.72,864.917 1569.05,858.417 1556.5,856C 1537.24,853.547 1517.91,852.88 1498.5,854C 1496.91,854.862 1495.25,855.529 1493.5,856C 1492.84,885.101 1492.17,914.267 1491.5,943.5C 1474.02,950.708 1474.19,957.375 1492,963.5C 1492.33,992.167 1492.67,1020.83 1493,1049.5C 1498.2,1051.88 1503.7,1052.88 1509.5,1052.5C 1515.29,1052.88 1520.79,1051.88 1526,1049.5C 1527.29,1028.22 1527.96,1006.88 1528,985.5C 1532.87,977.595 1537.53,977.595 1542,985.5C 1547.31,1005.42 1552.31,1025.42 1557,1045.5C 1559.84,1051.92 1564.84,1054.26 1572,1052.5C 1579.59,1052.4 1587.09,1051.56 1594.5,1050C 1595.06,1049.28 1595.39,1048.44 1595.5,1047.5C 1591.81,1030.74 1587.81,1014.07 1583.5,997.5C 1583.15,989.292 1581.99,981.292 1580,973.5C 1580.33,974.5 1580.67,975.5 1581,976.5C 1582.67,975.66 1582.83,976.16 1581.5,978C 1582.17,978.333 1582.83,978.667 1583.5,979C 1583.05,981.229 1583.05,982.896 1583.5,984C 1584.79,985.41 1585.95,986.91 1587,988.5C 1591.06,1002.03 1594.73,1015.69 1598,1029.5C 1599.16,1035.8 1599.99,1042.13 1600.5,1048.5C 1602.17,1050.99 1601.83,1053.16 1599.5,1055C 1589.7,1057.62 1579.87,1060.12 1570,1062.5C 1561.71,1060.52 1555.05,1056.19 1550,1049.5C 1546.95,1035.21 1544.12,1020.87 1541.5,1006.5C 1544.26,999.694 1543.92,993.027 1540.5,986.5C 1538.48,984.804 1536.48,983.137 1534.5,981.5C 1533.56,981.608 1532.72,981.941 1532,982.5C 1530.16,986.464 1529.32,990.63 1529.5,995C 1530.68,1009.73 1532.35,1024.39 1534.5,1039C 1533.92,1042.77 1533.92,1046.44 1534.5,1050C 1533.54,1051.42 1532.71,1052.92 1532,1054.5C 1528.67,1055.83 1525.33,1057.17 1522,1058.5C 1521.67,1058.17 1521.33,1057.83 1521,1057.5C 1515.2,1058.87 1509.36,1060.2 1503.5,1061.5C 1498.15,1060 1493.15,1057.83 1488.5,1055C 1486.12,1051.59 1484.79,1047.75 1484.5,1043.5C 1485.49,1023.24 1487.15,1003.07 1489.5,983C 1486.85,973.882 1482.02,966.049 1475,959.5C 1472.1,954.349 1471.76,949.015 1474,943.5C 1478.22,939.818 1479.72,935.651 1478.5,931C 1479.18,929.307 1480.18,927.807 1481.5,926.5C 1480.2,922.541 1479.53,918.708 1479.5,915C 1481.06,900.602 1481.9,886.102 1482,871.5C 1482.31,869.444 1482.81,867.444 1483.5,865.5C 1482.65,863.939 1482.99,862.439 1484.5,861C 1484.16,857.539 1484.82,854.039 1486.5,850.5C 1493.11,844.006 1501.11,841.173 1510.5,842C 1517.17,841.333 1523.83,841.333 1530.5,842C 1542.3,844.778 1554.3,848.111 1566.5,852C 1573.23,856.456 1579.73,861.289 1586,866.5C 1588.72,871.174 1590.56,876.174 1591.5,881.5 Z"/></g>
<g><path style="opacity:1" fill="#822533" d="M 421.5,795.5 C 438.153,797.219 454.153,801.385 469.5,808C 470.337,809.011 470.67,810.178 470.5,811.5C 476.525,812.504 482.192,814.504 487.5,817.5C 493.947,821.226 500.614,824.726 507.5,828C 508.56,829.298 509.726,830.465 511,831.5C 515.823,832.98 520.657,834.48 525.5,836C 535.629,846.787 546.296,856.954 557.5,866.5C 561.828,871.821 565.662,877.488 569,883.5C 570.512,884.257 571.846,885.257 573,886.5C 575.289,895.232 577.456,903.565 579.5,911.5C 571.425,895.692 561.592,881.026 550,867.5C 494.271,808.538 426.771,788.205 347.5,806.5C 347.227,804.549 347.893,803.049 349.5,802C 373.494,799.501 397.494,797.334 421.5,795.5 Z"/></g>
<g><path style="opacity:1" fill="#7e2231" d="M 1089.5,851.5 C 1089.61,852.117 1089.94,852.617 1090.5,853C 1092.47,853.495 1094.47,853.662 1096.5,853.5C 1096.5,854.833 1096.5,856.167 1096.5,857.5C 1105.93,859.274 1112.27,864.607 1115.5,873.5C 1105.07,860.622 1091.4,854.122 1074.5,854C 1058.13,853.094 1041.79,853.427 1025.5,855C 1025,855.5 1024.5,856 1024,856.5C 1023.83,885.506 1023.33,914.506 1022.5,943.5C 1020.8,944.174 1019.14,944.841 1017.5,945.5C 1018.44,943.559 1019.77,941.892 1021.5,940.5C 1021.83,934.333 1022.17,928.167 1022.5,922C 1021.89,899.09 1021.39,876.257 1021,853.5C 1025.97,849.245 1031.8,847.245 1038.5,847.5C 1048.99,848.022 1059.65,848.522 1070.5,849C 1076.87,849.738 1083.2,850.571 1089.5,851.5 Z"/></g>
<g><path style="opacity:1" fill="#8d3542" d="M 408.5,820.5 C 420.183,829.684 430.349,840.35 439,852.5C 447.031,864.525 454.198,877.025 460.5,890C 443.259,890.825 426.093,890.658 409,889.5C 408.5,866.502 408.333,843.502 408.5,820.5 Z"/></g>
<g><path style="opacity:1" fill="#822933" d="M 1238.5,853.5 C 1238.71,855.179 1238.05,856.179 1236.5,856.5C 1233.28,855.362 1229.95,854.529 1226.5,854C 1202.83,853.333 1179.17,853.333 1155.5,854C 1153.39,854.36 1151.39,855.027 1149.5,856C 1148.84,885.101 1148.17,914.267 1147.5,943.5C 1142.69,945.068 1138.36,947.402 1134.5,950.5C 1133.47,950.103 1133.31,949.437 1134,948.5C 1137.27,944.832 1141.27,942.165 1146,940.5C 1145.51,913.176 1145.51,885.842 1146,858.5C 1147.35,852.982 1150.85,849.649 1156.5,848.5C 1166.65,849.13 1176.81,849.463 1187,849.5C 1199.58,849.712 1212.08,849.045 1224.5,847.5C 1229.59,848.618 1234.26,850.618 1238.5,853.5 Z"/></g>
<g><path style="opacity:1" fill="#8a2d40" d="M 898.5,857.5 C 898.831,886.338 898.498,915.005 897.5,943.5C 897.5,942.5 897.5,941.5 897.5,940.5C 894.377,940.442 892.044,939.108 890.5,936.5C 891.963,934.369 892.963,932.035 893.5,929.5C 893.097,926.239 892.43,923.072 891.5,920C 891.833,919.667 892.167,919.333 892.5,919C 890.803,897.772 890.469,876.605 891.5,855.5C 892.29,856.609 892.79,857.942 893,859.5C 894.583,857.089 895.583,854.422 896,851.5C 896.24,853.852 897.073,855.852 898.5,857.5 Z"/></g>
<g><path style="opacity:1" fill="#fcfbfb" d="M 760.5,856.5 C 761.538,864.806 761.705,873.139 761,881.5C 760.535,882.931 759.701,884.097 758.5,885C 743.145,885.236 727.812,885.903 712.5,887C 710.069,887.295 708.236,888.462 707,890.5C 706.333,903.167 706.333,915.833 707,928.5C 707.394,931.893 709.227,934.06 712.5,935C 722.547,935.191 732.547,935.691 742.5,936.5C 744.48,938.795 745.647,941.461 746,944.5C 746.667,950.5 746.667,956.5 746,962.5C 745.55,964.519 744.717,966.352 743.5,968C 734.884,969.173 726.217,969.839 717.5,970C 714.15,970.25 710.983,971.083 708,972.5C 707.08,975.101 706.413,977.768 706,980.5C 705.807,1003.02 705.307,1025.52 704.5,1048C 704.245,1049.33 703.578,1050.33 702.5,1051C 693.84,1051.5 685.173,1051.67 676.5,1051.5C 675.542,1051.05 674.708,1050.38 674,1049.5C 673.832,1021 673.332,992.664 672.5,964.5C 669.032,961.893 665.366,959.393 661.5,957C 659.549,955.266 658.549,953.099 658.5,950.5C 662.687,947.828 667.02,945.328 671.5,943C 672.191,941.933 672.691,940.766 673,939.5C 673.581,918.829 673.415,898.163 672.5,877.5C 672.667,871.833 672.833,866.167 673,860.5C 673.251,858.567 673.751,856.734 674.5,855C 701.784,853.368 729.118,853.035 756.5,854C 758.32,854.2 759.653,855.034 760.5,856.5 Z"/></g>
<g><path style="opacity:1" fill="#fcfbfb" d="M 821.5,933.5 C 822.263,934.268 823.263,934.768 824.5,935C 831.5,935.333 838.5,935.667 845.5,936C 848.956,936.18 852.289,936.847 855.5,938C 856.191,939.067 856.691,940.234 857,941.5C 857.167,945.167 857.333,948.833 857.5,952.5C 857.694,957.831 857.027,962.998 855.5,968C 846.909,969.244 838.242,969.911 829.5,970C 825.924,970.19 822.758,971.357 820,973.5C 818.891,980.257 818.391,987.091 818.5,994C 818.391,1000.91 818.891,1007.74 820,1014.5C 820.903,1015.7 822.069,1016.53 823.5,1017C 839.22,1017.06 854.887,1017.73 870.5,1019C 871.126,1019.75 871.626,1020.58 872,1021.5C 872.777,1030.55 872.611,1039.55 871.5,1048.5C 870.942,1049.79 869.942,1050.62 868.5,1051C 841.167,1051.67 813.833,1051.67 786.5,1051C 784.574,1050.58 783.574,1049.41 783.5,1047.5C 783.667,1019.5 783.5,991.498 783,963.5C 780.069,962.284 777.236,960.95 774.5,959.5C 770.877,957.588 769.377,954.588 770,950.5C 773.999,947.332 778.332,944.665 783,942.5C 783.171,913.595 783.671,884.761 784.5,856C 786.5,855.333 788.5,854.667 790.5,854C 813.167,853.333 835.833,853.333 858.5,854C 862.195,854.318 865.862,854.818 869.5,855.5C 870.647,855.818 871.481,856.484 872,857.5C 873.506,864.433 873.839,871.433 873,878.5C 872.697,880.888 871.863,883.055 870.5,885C 855.901,886.284 841.235,886.95 826.5,887C 824.112,887.303 821.945,888.137 820,889.5C 818.389,902.764 818.056,916.097 819,929.5C 819.2,931.32 820.034,932.653 821.5,933.5 Z"/></g>
<g><path style="opacity:1" fill="#fcfbfb" d="M 989.5,871.5 C 992.407,876.786 994.24,882.452 995,888.5C 995.5,900.162 995.667,911.829 995.5,923.5C 995.5,928.833 995.5,934.167 995.5,939.5C 994.598,942.997 993.931,946.663 993.5,950.5C 990.604,955.274 987.437,959.941 984,964.5C 983.296,966.278 982.796,968.112 982.5,970C 987.764,991.89 993.264,1013.72 999,1035.5C 1000.39,1040.49 1000.56,1045.49 999.5,1050.5C 988.141,1052.99 976.808,1052.99 965.5,1050.5C 964.481,1048.4 963.481,1046.4 962.5,1044.5C 958.194,1025.47 953.694,1006.47 949,987.5C 946.18,978.811 941.513,977.477 935,983.5C 934.138,985.087 933.471,986.754 933,988.5C 932.667,1008.83 932.333,1029.17 932,1049.5C 930.933,1050.19 929.766,1050.69 928.5,1051C 921.174,1051.5 913.841,1051.67 906.5,1051.5C 904.5,1051.5 902.5,1051.5 900.5,1051.5C 898.832,1049.52 898.166,1047.19 898.5,1044.5C 898.5,1040.5 898.5,1036.5 898.5,1032.5C 899.167,1021.17 899.5,1009.67 899.5,998C 899.499,986.147 898.832,974.647 897.5,963.5C 897.167,963.5 896.833,963.5 896.5,963.5C 880.339,956.532 880.673,949.865 897.5,943.5C 898.498,915.005 898.831,886.338 898.5,857.5C 898.414,856.504 898.748,855.671 899.5,855C 919.164,853.015 938.83,853.015 958.5,855C 970.873,856.851 981.206,862.351 989.5,871.5 Z"/></g>
<g><path style="opacity:1" fill="#fcfbfb" d="M 1115.5,873.5 C 1118.09,878.844 1119.59,884.51 1120,890.5C 1120.67,908.5 1120.67,926.5 1120,944.5C 1117.88,952.067 1114.22,958.734 1109,964.5C 1108.13,966.581 1107.63,968.747 1107.5,971C 1112.92,992.516 1118.42,1014.02 1124,1035.5C 1125.29,1040.11 1125.62,1044.78 1125,1049.5C 1115.04,1052.25 1104.87,1053.09 1094.5,1052C 1092.67,1051.73 1091.17,1050.89 1090,1049.5C 1084.03,1028.28 1078.36,1006.95 1073,985.5C 1071.12,979.373 1067.62,978.04 1062.5,981.5C 1060.59,981.574 1059.42,982.574 1059,984.5C 1058.96,1006.22 1058.29,1027.88 1057,1049.5C 1056.5,1050 1056,1050.5 1055.5,1051C 1045.14,1051.73 1034.81,1051.57 1024.5,1050.5C 1023.67,1021.91 1023.17,993.239 1023,964.5C 1019.05,961.774 1014.88,959.441 1010.5,957.5C 1009.83,955.181 1009.67,952.847 1010,950.5C 1012.44,948.699 1014.94,947.032 1017.5,945.5C 1019.14,944.841 1020.8,944.174 1022.5,943.5C 1023.33,914.506 1023.83,885.506 1024,856.5C 1024.5,856 1025,855.5 1025.5,855C 1041.79,853.427 1058.13,853.094 1074.5,854C 1091.4,854.122 1105.07,860.622 1115.5,873.5 Z"/></g>
<g><path style="opacity:1" fill="#8a2a39" d="M 1218.5,844.5 C 1217.45,844.351 1216.45,844.517 1215.5,845C 1221.54,845.613 1227.2,846.613 1232.5,848C 1234.16,849.829 1236.16,851.163 1238.5,852C 1239.74,852.69 1239.74,853.19 1238.5,853.5C 1234.26,850.618 1229.59,848.618 1224.5,847.5C 1212.08,849.045 1199.58,849.712 1187,849.5C 1176.81,849.463 1166.65,849.13 1156.5,848.5C 1150.85,849.649 1147.35,852.982 1146,858.5C 1145.51,885.842 1145.51,913.176 1146,940.5C 1141.27,942.165 1137.27,944.832 1134,948.5C 1133.31,949.437 1133.47,950.103 1134.5,950.5C 1134.39,953.059 1135.06,955.392 1136.5,957.5C 1140.23,959.735 1144.06,961.735 1148,963.5C 1148.33,991.167 1148.67,1018.83 1149,1046.5C 1149.27,1048.33 1150.11,1049.83 1151.5,1051C 1178.83,1051.67 1206.17,1051.67 1233.5,1051C 1234.42,1050.63 1235.25,1050.13 1236,1049.5C 1238.21,1041.29 1238.88,1032.96 1238,1024.5C 1237.55,1022.48 1236.72,1020.65 1235.5,1019C 1220.21,1017.75 1204.88,1017.08 1189.5,1017C 1186.39,1016.38 1184.55,1014.54 1184,1011.5C 1183.06,998.763 1183.39,986.096 1185,973.5C 1186.17,972.107 1187.67,971.273 1189.5,971C 1197.16,970.5 1204.83,970.334 1212.5,970.5C 1205.66,971.167 1198.66,971.833 1191.5,972.5C 1192.38,973.251 1193.38,973.751 1194.5,974C 1192.11,974.284 1191.45,975.284 1192.5,977C 1191.07,978.916 1190.07,981.083 1189.5,983.5C 1188.59,988.466 1187.93,993.466 1187.5,998.5C 1187.33,1000.69 1187.99,1002.53 1189.5,1004C 1188.98,1006.29 1189.64,1008.46 1191.5,1010.5C 1192.99,1011.24 1194.49,1011.91 1196,1012.5C 1206.83,1012.02 1217.67,1011.35 1228.5,1010.5C 1235.92,1011.29 1241.42,1014.96 1245,1021.5C 1247.72,1030.43 1248.05,1039.43 1246,1048.5C 1243.45,1052.72 1239.95,1055.89 1235.5,1058C 1231.02,1059.33 1226.52,1060.5 1222,1061.5C 1204.64,1060.26 1187.14,1060.26 1169.5,1061.5C 1163.95,1059.86 1158.29,1058.7 1152.5,1058C 1149.88,1055 1147.04,1052.17 1144,1049.5C 1142,1042.09 1140.17,1034.75 1138.5,1027.5C 1138.33,1021.49 1138.5,1015.49 1139,1009.5C 1140.33,1001.55 1141.83,993.55 1143.5,985.5C 1142.86,982.151 1142.86,978.984 1143.5,976C 1142.14,974.055 1141.3,971.888 1141,969.5C 1138.63,966.712 1137.29,967.046 1137,970.5C 1133.47,966.783 1130.97,962.45 1129.5,957.5C 1128.23,956.572 1126.9,956.405 1125.5,957C 1121.09,961.314 1118.43,966.481 1117.5,972.5C 1123.29,991.985 1127.96,1011.65 1131.5,1031.5C 1133.52,1038.44 1133.86,1045.61 1132.5,1053C 1123.7,1058.08 1114.03,1059.25 1103.5,1056.5C 1100.26,1056.45 1097.26,1057.11 1094.5,1058.5C 1091.46,1056.99 1089.62,1054.99 1089,1052.5C 1087.61,1054.72 1085.94,1054.72 1084,1052.5C 1083.03,1045.86 1081.36,1039.2 1079,1032.5C 1077.91,1026.65 1076.75,1020.82 1075.5,1015C 1075.59,1013.89 1075.92,1012.89 1076.5,1012C 1075.57,1011.61 1074.91,1010.95 1074.5,1010C 1075.05,1008.04 1075.38,1006.04 1075.5,1004C 1075.55,995.777 1072.88,988.777 1067.5,983C 1065.62,982.802 1063.95,982.302 1062.5,981.5C 1067.62,978.04 1071.12,979.373 1073,985.5C 1078.36,1006.95 1084.03,1028.28 1090,1049.5C 1091.17,1050.89 1092.67,1051.73 1094.5,1052C 1104.87,1053.09 1115.04,1052.25 1125,1049.5C 1125.62,1044.78 1125.29,1040.11 1124,1035.5C 1118.42,1014.02 1112.92,992.516 1107.5,971C 1107.63,968.747 1108.13,966.581 1109,964.5C 1114.22,958.734 1117.88,952.067 1120,944.5C 1120.67,926.5 1120.67,908.5 1120,890.5C 1119.59,884.51 1118.09,878.844 1115.5,873.5C 1112.27,864.607 1105.93,859.274 1096.5,857.5C 1096.5,856.167 1096.5,854.833 1096.5,853.5C 1094.47,853.662 1092.47,853.495 1090.5,853C 1089.94,852.617 1089.61,852.117 1089.5,851.5C 1100.87,853.908 1110.7,859.241 1119,867.5C 1120.71,869.956 1122.04,872.623 1123,875.5C 1124.02,874.366 1124.68,874.699 1125,876.5C 1126.64,882.913 1128.14,889.246 1129.5,895.5C 1130.51,910.11 1130.68,924.777 1130,939.5C 1131.43,941.787 1133.26,942.12 1135.5,940.5C 1138.25,937.268 1140.25,933.602 1141.5,929.5C 1139.93,916.344 1138.6,902.844 1137.5,889C 1137.99,883.889 1137.99,878.722 1137.5,873.5C 1137.94,865.617 1139.44,857.95 1142,850.5C 1146.33,846.507 1151.33,843.84 1157,842.5C 1165.63,843.273 1174.46,843.273 1183.5,842.5C 1195.35,842.779 1207.01,843.446 1218.5,844.5 Z"/></g>
<g><path style="opacity:1" fill="#fcfbfb" d="M 1236.5,856.5 C 1239.28,866.108 1238.94,875.608 1235.5,885C 1221.06,886.115 1206.73,886.949 1192.5,887.5C 1188.79,887.225 1185.96,888.558 1184,891.5C 1183.33,903.833 1183.33,916.167 1184,928.5C 1184.41,931.494 1185.91,933.661 1188.5,935C 1198.88,935.13 1209.22,935.796 1219.5,937C 1220.33,937.833 1221.17,938.667 1222,939.5C 1222.92,948.909 1222.58,958.242 1221,967.5C 1220.33,968.252 1219.5,968.586 1218.5,968.5C 1216.5,969.167 1214.5,969.833 1212.5,970.5C 1204.83,970.334 1197.16,970.5 1189.5,971C 1187.67,971.273 1186.17,972.107 1185,973.5C 1183.39,986.096 1183.06,998.763 1184,1011.5C 1184.55,1014.54 1186.39,1016.38 1189.5,1017C 1204.88,1017.08 1220.21,1017.75 1235.5,1019C 1236.72,1020.65 1237.55,1022.48 1238,1024.5C 1238.88,1032.96 1238.21,1041.29 1236,1049.5C 1235.25,1050.13 1234.42,1050.63 1233.5,1051C 1206.17,1051.67 1178.83,1051.67 1151.5,1051C 1150.11,1049.83 1149.27,1048.33 1149,1046.5C 1148.67,1018.83 1148.33,991.167 1148,963.5C 1144.06,961.735 1140.23,959.735 1136.5,957.5C 1135.06,955.392 1134.39,953.059 1134.5,950.5C 1138.36,947.402 1142.69,945.068 1147.5,943.5C 1148.17,914.267 1148.84,885.101 1149.5,856C 1151.39,855.027 1153.39,854.36 1155.5,854C 1179.17,853.333 1202.83,853.333 1226.5,854C 1229.95,854.529 1233.28,855.362 1236.5,856.5 Z"/></g>
<g><path style="opacity:1" fill="#fbf9fa" d="M 1295.5,1051.5 C 1292.14,1052.21 1290.31,1050.88 1290,1047.5C 1289.83,1019.83 1289.33,992.161 1288.5,964.5C 1283.59,962.463 1279.09,959.796 1275,956.5C 1273.83,953.073 1274.67,950.407 1277.5,948.5C 1281.02,945.744 1285.02,944.077 1289.5,943.5C 1289.96,926.097 1289.46,908.764 1288,891.5C 1286.83,890.107 1285.33,889.273 1283.5,889C 1275.44,888.599 1267.44,887.765 1259.5,886.5C 1258.22,875.957 1258.22,865.457 1259.5,855C 1274.28,853.866 1289.12,853.366 1304,853.5C 1317.5,853.667 1331,853.833 1344.5,854C 1347.83,854.61 1351.16,855.11 1354.5,855.5C 1354.67,865.506 1354.5,875.506 1354,885.5C 1346.95,887.021 1339.78,888.187 1332.5,889C 1329.42,889.622 1326.92,891.122 1325,893.5C 1324.33,909.833 1324.33,926.167 1325,942.5C 1329.42,944.623 1333.58,947.123 1337.5,950C 1340.27,952.966 1339.93,955.633 1336.5,958C 1333.11,960.361 1329.45,962.194 1325.5,963.5C 1324.81,991.51 1324.14,1019.51 1323.5,1047.5C 1323.29,1048.99 1322.62,1050.16 1321.5,1051C 1312.83,1052.64 1304.16,1052.81 1295.5,1051.5 Z"/></g>
<g><path style="opacity:1" fill="#fcfafb" d="M 1450.5,938.5 C 1451.61,947.452 1451.78,956.452 1451,965.5C 1450.21,967.644 1448.71,968.977 1446.5,969.5C 1437.2,970.252 1427.87,970.752 1418.5,971C 1413.69,972.763 1411.53,976.263 1412,981.5C 1411.14,991.552 1411.47,1001.55 1413,1011.5C 1414.17,1014 1416,1015.83 1418.5,1017C 1432.5,1017.33 1446.5,1017.67 1460.5,1018C 1462.15,1018.61 1463.82,1019.11 1465.5,1019.5C 1468.21,1029.9 1467.87,1040.23 1464.5,1050.5C 1436.21,1051.48 1407.88,1051.82 1379.5,1051.5C 1378.91,1050.23 1378.41,1048.9 1378,1047.5C 1377.83,1019.49 1377.33,991.494 1376.5,963.5C 1372.83,961.333 1369.17,959.167 1365.5,957C 1363.54,954.833 1363.2,952.499 1364.5,950C 1368.31,946.762 1372.64,944.596 1377.5,943.5C 1377.18,913.789 1377.52,884.123 1378.5,854.5C 1405.84,853.021 1433.18,853.188 1460.5,855C 1462.68,855.163 1464.51,855.996 1466,857.5C 1466.96,861.777 1467.46,866.111 1467.5,870.5C 1467.88,875.662 1466.88,880.495 1464.5,885C 1449.9,886.284 1435.23,886.95 1420.5,887C 1414.99,887.176 1412.16,890.01 1412,895.5C 1411.33,904.167 1411.33,912.833 1412,921.5C 1412.03,925.768 1413.03,929.768 1415,933.5C 1415.75,934.126 1416.58,934.626 1417.5,935C 1425.83,935.333 1434.17,935.667 1442.5,936C 1445.38,936.272 1448.05,937.106 1450.5,938.5 Z"/></g>
<g><path style="opacity:1" fill="#fcfbfb" d="M 1585.5,875.5 C 1586.43,878.454 1587.26,881.454 1588,884.5C 1588.67,905.5 1588.67,926.5 1588,947.5C 1585.44,953.628 1582.1,959.295 1578,964.5C 1577.02,966.366 1576.52,968.366 1576.5,970.5C 1578.08,979.816 1580.41,988.816 1583.5,997.5C 1587.81,1014.07 1591.81,1030.74 1595.5,1047.5C 1595.39,1048.44 1595.06,1049.28 1594.5,1050C 1587.09,1051.56 1579.59,1052.4 1572,1052.5C 1564.84,1054.26 1559.84,1051.92 1557,1045.5C 1552.31,1025.42 1547.31,1005.42 1542,985.5C 1537.53,977.595 1532.87,977.595 1528,985.5C 1527.96,1006.88 1527.29,1028.22 1526,1049.5C 1520.79,1051.88 1515.29,1052.88 1509.5,1052.5C 1503.7,1052.88 1498.2,1051.88 1493,1049.5C 1492.67,1020.83 1492.33,992.167 1492,963.5C 1474.19,957.375 1474.02,950.708 1491.5,943.5C 1492.17,914.267 1492.84,885.101 1493.5,856C 1495.25,855.529 1496.91,854.862 1498.5,854C 1517.91,852.88 1537.24,853.547 1556.5,856C 1569.05,858.417 1578.72,864.917 1585.5,875.5 Z"/></g>
<g><path style="opacity:1" fill="#fcfbfb" d="M 1773.5,926.5 C 1773.79,931.912 1774.62,937.245 1776,942.5C 1780.7,944.435 1785.2,946.769 1789.5,949.5C 1792.08,951.956 1792.08,954.456 1789.5,957C 1786.42,958.96 1783.25,960.793 1780,962.5C 1783.1,986.186 1786.77,1009.85 1791,1033.5C 1791.67,1038.5 1791.67,1043.5 1791,1048.5C 1789.51,1050 1787.68,1050.84 1785.5,1051C 1776.51,1052.6 1767.51,1052.76 1758.5,1051.5C 1757.5,1050.32 1756.66,1048.98 1756,1047.5C 1755.1,1042.71 1754.26,1038.04 1753.5,1033.5C 1753.15,1026.69 1751.98,1020.02 1750,1013.5C 1742.93,1006.77 1735.09,1005.77 1726.5,1010.5C 1725.42,1011.67 1724.58,1013 1724,1014.5C 1722.2,1026.52 1719.7,1038.35 1716.5,1050C 1705.6,1051.62 1694.6,1051.95 1683.5,1051C 1682.37,1046.25 1682.2,1041.42 1683,1036.5C 1685.49,1023.88 1687.66,1011.21 1689.5,998.5C 1689.5,998.167 1689.5,997.833 1689.5,997.5C 1692.15,986.052 1693.99,974.385 1695,962.5C 1692.25,960.873 1689.41,959.373 1686.5,958C 1683.02,955.294 1682.69,952.294 1685.5,949C 1689.22,946.473 1693.22,944.473 1697.5,943C 1698.13,942.25 1698.63,941.416 1699,940.5C 1702.08,926.595 1704.58,912.595 1706.5,898.5C 1708.54,886.618 1710.7,874.618 1713,862.5C 1713.18,856.99 1716.01,854.157 1721.5,854C 1733.75,853.008 1745.92,853.508 1758,855.5C 1760.09,857.348 1761.43,859.681 1762,862.5C 1765.43,884.043 1769.26,905.376 1773.5,926.5 Z"/></g>
<g><path style="opacity:1" fill="#934e56" d="M 389.5,826.5 C 389.5,847.833 389.5,869.167 389.5,890.5C 372.5,890.5 355.5,890.5 338.5,890.5C 338.263,889.209 338.596,888.209 339.5,887.5C 355.466,889.485 371.799,890.152 388.5,889.5C 388.169,868.327 388.503,847.327 389.5,826.5 Z"/></g>
<g><path style="opacity:1" fill="#933442" d="M 1607.5,872.5 C 1607.2,873.15 1606.86,873.817 1606.5,874.5C 1609.17,891.724 1611.01,909.057 1612,926.5C 1612.33,925.833 1612.67,925.167 1613,924.5C 1614.5,928.755 1614.5,933.088 1613,937.5C 1612.75,936.376 1612.25,935.376 1611.5,934.5C 1608.09,937.288 1604.59,939.955 1601,942.5C 1600.33,941.833 1599.67,941.167 1599,940.5C 1598.18,921.488 1597.18,902.488 1596,883.5C 1595.46,880.708 1594.62,878.042 1593.5,875.5C 1592.78,870.125 1592.11,864.458 1591.5,858.5C 1595.46,858.823 1599.29,858.823 1603,858.5C 1605.04,863.127 1606.54,867.794 1607.5,872.5 Z"/></g>
<g><path style="opacity:1" fill="#92323f" d="M 1137.5,873.5 C 1137.99,878.722 1137.99,883.889 1137.5,889C 1138.6,902.844 1139.93,916.344 1141.5,929.5C 1140.25,933.602 1138.25,937.268 1135.5,940.5C 1133.26,942.12 1131.43,941.787 1130,939.5C 1130.68,924.777 1130.51,910.11 1129.5,895.5C 1129.78,889.341 1128.95,883.341 1127,877.5C 1124.44,868.351 1120.94,859.351 1116.5,850.5C 1120,850.741 1120.33,849.908 1117.5,848C 1117.83,847.833 1118.17,847.667 1118.5,847.5C 1122.19,848.013 1126.03,848.013 1130,847.5C 1131.09,849.14 1133.09,850.473 1136,851.5C 1137.22,858.916 1137.72,866.249 1137.5,873.5 Z"/></g>
<g><path style="opacity:1" fill="#8a2838" d="M 421.5,795.5 C 397.494,797.334 373.494,799.501 349.5,802C 347.893,803.049 347.227,804.549 347.5,806.5C 345.5,806.833 343.5,807.167 341.5,807.5C 330.355,810.585 319.355,813.918 308.5,817.5C 308.5,818.5 308.5,819.5 308.5,820.5C 302.88,820.905 297.547,822.238 292.5,824.5C 281.283,833.878 269.616,842.711 257.5,851C 245.691,862.138 235.358,874.472 226.5,888C 226.833,888.333 227.167,888.667 227.5,889C 225.519,889.605 225.185,890.605 226.5,892C 223.736,898.024 221.403,904.191 219.5,910.5C 209.079,932.864 202.412,956.198 199.5,980.5C 199.343,975.265 199.176,969.932 199,964.5C 198.351,967.937 197.851,968.104 197.5,965C 199.027,962.53 199.694,960.03 199.5,957.5C 198.833,954.833 198.167,952.167 197.5,949.5C 205.692,904.434 227.692,867.767 263.5,839.5C 267.415,832.805 272.748,827.638 279.5,824C 282.5,821 285.5,818 288.5,815C 289.449,814.383 290.282,814.549 291,815.5C 292.506,812.526 294.172,812.193 296,814.5C 305.394,809.303 315.061,804.637 325,800.5C 325.873,800.735 326.707,801.069 327.5,801.5C 328.258,800.189 329.258,799.689 330.5,800C 328.909,802.133 326.909,803.799 324.5,805C 325.416,805.374 326.25,805.874 327,806.5C 329.351,805.286 331.851,804.452 334.5,804C 332.099,803.195 332.266,802.362 335,801.5C 335.667,802.167 336.333,802.833 337,803.5C 341.83,800.332 346.996,799.165 352.5,800C 353.833,799.333 355.167,798.667 356.5,798C 356.167,797.667 355.833,797.333 355.5,797C 357,796.5 358.5,796 360,795.5C 380.414,794.504 400.914,794.504 421.5,795.5 Z"/></g>
<g><path style="opacity:1" fill="#8b2939" d="M 880.5,858.5 C 880.458,865.09 881.458,871.757 883.5,878.5C 882.197,881.783 880.864,885.116 879.5,888.5C 876.842,889.829 874.176,891.162 871.5,892.5C 870.289,891.726 870.289,890.893 871.5,890C 870.333,889.5 869.5,888.667 869,887.5C 864.282,889.008 859.449,890.508 854.5,892C 846.479,892.168 838.479,892.668 830.5,893.5C 829.052,895.667 827.885,898 827,900.5C 826.349,907.194 825.516,913.861 824.5,920.5C 824.912,923.83 826.078,926.83 828,929.5C 830.147,928.524 832.314,928.691 834.5,930C 832.616,930.216 830.949,930.883 829.5,932C 831.788,932.822 834.122,933.489 836.5,934C 831.958,934.162 827.458,933.662 823,932.5C 822.235,932.57 821.735,932.903 821.5,933.5C 820.034,932.653 819.2,931.32 819,929.5C 818.056,916.097 818.389,902.764 820,889.5C 821.945,888.137 824.112,887.303 826.5,887C 841.235,886.95 855.901,886.284 870.5,885C 871.863,883.055 872.697,880.888 873,878.5C 873.839,871.433 873.506,864.433 872,857.5C 871.481,856.484 870.647,855.818 869.5,855.5C 865.862,854.818 862.195,854.318 858.5,854C 835.833,853.333 813.167,853.333 790.5,854C 788.5,854.667 786.5,855.333 784.5,856C 783.671,884.761 783.171,913.595 783,942.5C 778.332,944.665 773.999,947.332 770,950.5C 769.377,954.588 770.877,957.588 774.5,959.5C 773.711,959.783 773.044,960.283 772.5,961C 775.294,963.63 777.961,966.463 780.5,969.5C 781.254,972.777 781.754,976.11 782,979.5C 782.168,1002.34 782.668,1025 783.5,1047.5C 783.574,1049.41 784.574,1050.58 786.5,1051C 813.833,1051.67 841.167,1051.67 868.5,1051C 869.942,1050.62 870.942,1049.79 871.5,1048.5C 873.101,1040.49 874.267,1032.16 875,1023.5C 877.106,1025.38 878.439,1027.71 879,1030.5C 879.225,1036.6 879.391,1042.6 879.5,1048.5C 879.966,1050.2 879.966,1051.7 879.5,1053C 871.726,1056.27 863.726,1058.27 855.5,1059C 837.108,1060.63 818.775,1061.8 800.5,1062.5C 794.719,1061.47 789.052,1059.97 783.5,1058C 783.833,1057.67 784.167,1057.33 784.5,1057C 780.854,1055.02 777.854,1052.35 775.5,1049C 776.081,1048.11 776.415,1047.11 776.5,1046C 775.156,1029.48 773.823,1012.98 772.5,996.5C 773.627,991.119 774.96,985.785 776.5,980.5C 772.871,972.116 768.205,963.949 762.5,956C 764.327,951.786 765.161,947.286 765,942.5C 769.213,939.303 771.713,935.136 772.5,930C 770.697,917.67 769.863,905.504 770,893.5C 769.043,891.291 767.876,891.457 766.5,894C 767.5,894.333 768.5,894.667 769.5,895C 767.167,895.333 764.833,895.667 762.5,896C 766.302,898.664 765.802,900.83 761,902.5C 759.036,902.522 756.869,902.188 754.5,901.5C 752.701,901.577 751.034,902.077 749.5,903C 754.476,908.307 753.643,912.807 747,916.5C 742.529,915.741 738.029,914.908 733.5,914C 733.976,910.616 735.31,907.616 737.5,905C 733.426,899.008 727.926,896.841 721,898.5C 720.085,897.672 719.419,896.672 719,895.5C 718.333,896.833 717.667,898.167 717,899.5C 716.48,897.711 716.813,896.044 718,894.5C 719.487,893.845 720.653,892.845 721.5,891.5C 719.114,890.471 717.114,891.137 715.5,893.5C 713.806,895.554 712.639,897.888 712,900.5C 711.75,906.438 711.583,912.271 711.5,918C 712.032,921.934 713.532,925.434 716,928.5C 717.049,927.483 718.216,927.316 719.5,928C 718.377,929.044 717.044,929.71 715.5,930C 721.388,931.796 727.388,931.796 733.5,930C 733.833,929.667 734.167,929.333 734.5,929C 731.833,928.667 729.167,928.333 726.5,928C 730.439,925.992 734.439,924.159 738.5,922.5C 740.566,925.298 742.066,924.965 743,921.5C 744.074,922.618 745.24,923.618 746.5,924.5C 747.155,927.659 748.822,930.159 751.5,932C 751.167,932.333 750.833,932.667 750.5,933C 751.24,934.785 751.907,936.618 752.5,938.5C 751.833,938.833 751.167,939.167 750.5,939.5C 754.765,948.984 755.265,958.65 752,968.5C 749.257,970.788 746.423,972.955 743.5,975C 735.971,976.952 728.304,978.119 720.5,978.5C 717.936,978.62 716.436,979.953 716,982.5C 710.999,1001.89 710.166,1021.55 713.5,1041.5C 713.598,1046.11 712.598,1050.44 710.5,1054.5C 699.119,1060.46 687.452,1061.46 675.5,1057.5C 673.744,1055.81 673.244,1053.81 674,1051.5C 674.977,1052.77 675.811,1052.77 676.5,1051.5C 685.173,1051.67 693.84,1051.5 702.5,1051C 703.578,1050.33 704.245,1049.33 704.5,1048C 705.307,1025.52 705.807,1003.02 706,980.5C 706.413,977.768 707.08,975.101 708,972.5C 710.983,971.083 714.15,970.25 717.5,970C 726.217,969.839 734.884,969.173 743.5,968C 744.717,966.352 745.55,964.519 746,962.5C 746.667,956.5 746.667,950.5 746,944.5C 745.647,941.461 744.48,938.795 742.5,936.5C 732.547,935.691 722.547,935.191 712.5,935C 709.227,934.06 707.394,931.893 707,928.5C 706.333,915.833 706.333,903.167 707,890.5C 708.236,888.462 710.069,887.295 712.5,887C 727.812,885.903 743.145,885.236 758.5,885C 759.701,884.097 760.535,882.931 761,881.5C 761.705,873.139 761.538,864.806 760.5,856.5C 761.376,856.631 762.043,856.298 762.5,855.5C 761.499,852.747 759.666,850.747 757,849.5C 750.658,847.643 744.158,846.476 737.5,846C 719.493,845.619 701.493,845.953 683.5,847C 678.659,846.83 675.492,848.996 674,853.5C 673.586,853.043 673.086,852.709 672.5,852.5C 671.667,880.494 671.167,908.494 671,936.5C 670.363,938.303 669.197,939.636 667.5,940.5C 664.269,941.727 661.269,943.394 658.5,945.5C 657.212,947.299 657.212,948.965 658.5,950.5C 658.549,953.099 659.549,955.266 661.5,957C 665.366,959.393 669.032,961.893 672.5,964.5C 672.142,968.509 671.642,972.509 671,976.5C 666.922,975.419 664.589,972.752 664,968.5C 662.333,967.167 660.667,965.833 659,964.5C 657.337,960.504 655.171,956.837 652.5,953.5C 652.103,952.014 651.77,950.514 651.5,949C 654.638,941.897 658.138,935.064 662,928.5C 662.333,909.5 662.667,890.5 663,871.5C 663.483,865.086 664.483,858.752 666,852.5C 670.751,846.398 676.917,842.898 684.5,842C 702.837,840.142 721.17,840.142 739.5,842C 745.816,843.426 752.15,844.759 758.5,846C 761.314,848.485 763.814,851.319 766,854.5C 767.869,861.987 770.036,869.32 772.5,876.5C 773.971,875.619 774.804,874.286 775,872.5C 776.662,865.174 778.329,857.841 780,850.5C 782.696,849.81 784.863,848.31 786.5,846C 798.679,845.285 810.846,845.452 823,846.5C 833.094,845.788 842.928,844.788 852.5,843.5C 855.659,844.921 858.993,845.921 862.5,846.5C 862.911,845.738 863.077,844.738 863,843.5C 864.333,844.833 865.667,844.833 867,843.5C 871.276,845.668 874.942,848.668 878,852.5C 878.845,854.611 879.678,856.611 880.5,858.5 Z"/></g>
<g><path style="opacity:1" fill="#822933" d="M 760.5,856.5 C 759.653,855.034 758.32,854.2 756.5,854C 729.118,853.035 701.784,853.368 674.5,855C 673.751,856.734 673.251,858.567 673,860.5C 672.833,866.167 672.667,871.833 672.5,877.5C 673.415,898.163 673.581,918.829 673,939.5C 672.691,940.766 672.191,941.933 671.5,943C 667.02,945.328 662.687,947.828 658.5,950.5C 657.212,948.965 657.212,947.299 658.5,945.5C 661.269,943.394 664.269,941.727 667.5,940.5C 669.197,939.636 670.363,938.303 671,936.5C 671.167,908.494 671.667,880.494 672.5,852.5C 673.086,852.709 673.586,853.043 674,853.5C 675.492,848.996 678.659,846.83 683.5,847C 701.493,845.953 719.493,845.619 737.5,846C 744.158,846.476 750.658,847.643 757,849.5C 759.666,850.747 761.499,852.747 762.5,855.5C 762.043,856.298 761.376,856.631 760.5,856.5 Z"/></g>
<g><path style="opacity:1" fill="#882634" d="M 995.5,939.5 C 995.5,934.167 995.5,928.833 995.5,923.5C 996.862,908.639 996.695,893.639 995,878.5C 993.561,876.725 992.561,874.725 992,872.5C 991.329,871.748 990.496,871.414 989.5,871.5C 981.206,862.351 970.873,856.851 958.5,855C 938.83,853.015 919.164,853.015 899.5,855C 898.748,855.671 898.414,856.504 898.5,857.5C 897.073,855.852 896.24,853.852 896,851.5C 895.583,854.422 894.583,857.089 893,859.5C 892.79,857.942 892.29,856.609 891.5,855.5C 891.5,854.167 891.5,852.833 891.5,851.5C 894.447,847.058 898.447,843.892 903.5,842C 914.742,841.705 926.076,841.705 937.5,842C 948.792,844.281 959.958,847.115 971,850.5C 975.295,854.457 980.128,857.623 985.5,860C 989.097,863.191 992.264,866.691 995,870.5C 997.922,878.34 1000.26,886.34 1002,894.5C 1003.04,912.241 1002.38,929.908 1000,947.5C 999.667,948.167 999.333,948.833 999,949.5C 998.667,948.167 998.333,946.833 998,945.5C 997.692,946.308 997.192,946.975 996.5,947.5C 995.52,944.914 995.187,942.247 995.5,939.5 Z"/></g>
<g><path style="opacity:1" fill="#863b43" d="M 473.5,871.5 C 475.973,873.489 477.973,875.989 479.5,879C 478.823,881.537 479.823,883.537 482.5,885C 481.448,886.716 482.114,887.716 484.5,888C 501.167,888.333 517.833,888.667 534.5,889C 536.382,889.198 538.048,889.698 539.5,890.5C 520.155,890.833 500.822,890.5 481.5,889.5C 478.821,883.478 476.155,877.478 473.5,871.5 Z"/></g>
<g><path style="opacity:1" fill="#935564" d="M 258.5,887.5 C 277.471,889.488 296.804,890.154 316.5,889.5C 296.337,890.663 276.004,890.829 255.5,890C 256.373,888.955 257.373,888.122 258.5,887.5 Z"/></g>
<g><path style="opacity:1" fill="#7e3643" d="M 960.5,933.5 C 959.761,933.631 959.094,933.464 958.5,933C 959.191,931.933 959.691,930.766 960,929.5C 960.667,920.167 960.667,910.833 960,901.5C 958.422,898.468 956.255,895.968 953.5,894C 948.843,892.882 944.176,892.215 939.5,892C 936.601,893.627 935.101,896.127 935,899.5C 934.255,913.855 934.422,928.188 935.5,942.5C 934.113,940.123 933.279,937.457 933,934.5C 932.333,921.833 932.333,909.167 933,896.5C 933.606,893.452 935.106,890.952 937.5,889C 955.869,887.369 964.203,895.703 962.5,914C 962.645,920.637 961.978,927.137 960.5,933.5 Z"/></g>
<g><path style="opacity:1" fill="#8e2637" d="M 1192.5,887.5 C 1204.17,887.333 1215.84,887.5 1227.5,888C 1226.83,888.333 1226.17,888.667 1225.5,889C 1227.5,889.333 1229.5,889.667 1231.5,890C 1230.5,890.333 1229.5,890.667 1228.5,891C 1230.13,891.494 1231.8,891.66 1233.5,891.5C 1231.72,892.6 1229.72,893.434 1227.5,894C 1220.79,894.507 1214.13,895.34 1207.5,896.5C 1203.78,895.499 1200.11,895.999 1196.5,898C 1195,899.491 1194.16,901.324 1194,903.5C 1192.83,911.102 1193.66,918.435 1196.5,925.5C 1199.8,926.228 1203.14,926.395 1206.5,926C 1208.49,927.751 1210.82,928.751 1213.5,929C 1212.17,929.333 1210.83,929.667 1209.5,930C 1224.13,930.637 1231.13,938.303 1230.5,953C 1231.26,959.73 1229.42,965.563 1225,970.5C 1223.87,969.886 1222.54,969.886 1221,970.5C 1219.62,970.316 1218.79,969.649 1218.5,968.5C 1219.5,968.586 1220.33,968.252 1221,967.5C 1222.58,958.242 1222.92,948.909 1222,939.5C 1221.17,938.667 1220.33,937.833 1219.5,937C 1209.22,935.796 1198.88,935.13 1188.5,935C 1185.91,933.661 1184.41,931.494 1184,928.5C 1183.33,916.167 1183.33,903.833 1184,891.5C 1185.96,888.558 1188.79,887.225 1192.5,887.5 Z"/></g>
<g><path style="opacity:1" fill="#8e2e3d" d="M 1381.5,845.5 C 1380.29,848.611 1378.29,851.111 1375.5,853C 1376.74,853.232 1377.74,853.732 1378.5,854.5C 1377.52,884.123 1377.18,913.789 1377.5,943.5C 1372.64,944.596 1368.31,946.762 1364.5,950C 1363.2,952.499 1363.54,954.833 1365.5,957C 1369.17,959.167 1372.83,961.333 1376.5,963.5C 1377.33,991.494 1377.83,1019.49 1378,1047.5C 1378.41,1048.9 1378.91,1050.23 1379.5,1051.5C 1379.47,1052.5 1379.97,1053.16 1381,1053.5C 1408.22,1057.54 1435.39,1057.37 1462.5,1053C 1463.38,1052.29 1464.05,1051.46 1464.5,1050.5C 1467.87,1040.23 1468.21,1029.9 1465.5,1019.5C 1464.69,1018.27 1463.69,1017.27 1462.5,1016.5C 1467.4,1013.2 1470.56,1014.53 1472,1020.5C 1474.78,1030.39 1474.78,1040.05 1472,1049.5C 1471.15,1051.85 1469.65,1053.68 1467.5,1055C 1462.73,1056.02 1458.07,1057.36 1453.5,1059C 1430.5,1060.99 1407.5,1060.99 1384.5,1059C 1382.41,1057.33 1380.24,1056.83 1378,1057.5C 1374.96,1054.8 1372.3,1051.8 1370,1048.5C 1369.34,1051.87 1369.5,1055.2 1370.5,1058.5C 1369.72,1060.15 1368.56,1061.48 1367,1062.5C 1366.33,1061.17 1365.67,1061.17 1365,1062.5C 1361.99,1061 1362.49,1060.17 1366.5,1060C 1363.83,1059 1361.17,1058 1358.5,1057C 1355.83,1052.04 1353.17,1047.04 1350.5,1042C 1350.66,1040.02 1350.82,1037.86 1351,1035.5C 1348.22,1035.89 1346.05,1037.23 1344.5,1039.5C 1343.18,1037.73 1341.68,1037.4 1340,1038.5C 1338.33,1031.82 1337,1024.82 1336,1017.5C 1335.67,1019.5 1335.33,1021.5 1335,1023.5C 1334.67,1020.5 1334.33,1017.5 1334,1014.5C 1334.12,1028.27 1332.78,1041.61 1330,1054.5C 1326.78,1057.6 1323.28,1058.27 1319.5,1056.5C 1319.81,1055.69 1320.31,1055.03 1321,1054.5C 1325.04,1056.07 1327.87,1054.74 1329.5,1050.5C 1329.17,1049.5 1328.5,1048.83 1327.5,1048.5C 1326.58,1050.39 1325.24,1051.89 1323.5,1053C 1318.63,1053.25 1313.79,1053.75 1309,1054.5C 1304.08,1054.25 1299.58,1053.25 1295.5,1051.5C 1304.16,1052.81 1312.83,1052.64 1321.5,1051C 1322.62,1050.16 1323.29,1048.99 1323.5,1047.5C 1324.14,1019.51 1324.81,991.51 1325.5,963.5C 1329.45,962.194 1333.11,960.361 1336.5,958C 1339.93,955.633 1340.27,952.966 1337.5,950C 1333.58,947.123 1329.42,944.623 1325,942.5C 1324.33,926.167 1324.33,909.833 1325,893.5C 1326.92,891.122 1329.42,889.622 1332.5,889C 1339.78,888.187 1346.95,887.021 1354,885.5C 1354.5,875.506 1354.67,865.506 1354.5,855.5C 1351.16,855.11 1347.83,854.61 1344.5,854C 1331,853.833 1317.5,853.667 1304,853.5C 1289.12,853.366 1274.28,853.866 1259.5,855C 1258.22,865.457 1258.22,875.957 1259.5,886.5C 1267.44,887.765 1275.44,888.599 1283.5,889C 1285.33,889.273 1286.83,890.107 1288,891.5C 1289.46,908.764 1289.96,926.097 1289.5,943.5C 1285.02,944.077 1281.02,945.744 1277.5,948.5C 1277.39,947.883 1277.06,947.383 1276.5,947C 1280.17,945.779 1282.84,943.446 1284.5,940C 1283.38,938.956 1282.04,938.29 1280.5,938C 1281,936.004 1282,934.337 1283.5,933C 1282.1,932.405 1280.77,932.572 1279.5,933.5C 1278.81,932.975 1278.31,932.308 1278,931.5C 1277,932.833 1276,932.833 1275,931.5C 1274.09,932.328 1273.42,933.328 1273,934.5C 1272.63,933.584 1272.13,932.75 1271.5,932C 1272.22,927.047 1272.88,922.047 1273.5,917C 1272.32,915.51 1271.32,914.177 1270.5,913C 1270.94,910.838 1271.27,908.671 1271.5,906.5C 1270.19,905.088 1269.36,903.421 1269,901.5C 1268.67,901.833 1268.33,902.167 1268,902.5C 1264.6,901.199 1261.1,900.199 1257.5,899.5C 1257.67,898.178 1257.34,897.011 1256.5,896C 1252.88,895.197 1249.38,894.03 1246,892.5C 1244.74,892.759 1243.74,893.426 1243,894.5C 1241.21,893.657 1239.38,893.49 1237.5,894C 1243.29,891.24 1246.12,886.74 1246,880.5C 1244.91,884.92 1242.08,887.087 1237.5,887C 1237.83,887.333 1238.17,887.667 1238.5,888C 1237.15,889.669 1235.49,890.836 1233.5,891.5C 1231.8,891.66 1230.13,891.494 1228.5,891C 1229.5,890.667 1230.5,890.333 1231.5,890C 1229.5,889.667 1227.5,889.333 1225.5,889C 1226.17,888.667 1226.83,888.333 1227.5,888C 1215.84,887.5 1204.17,887.333 1192.5,887.5C 1206.73,886.949 1221.06,886.115 1235.5,885C 1238.94,875.608 1239.28,866.108 1236.5,856.5C 1238.05,856.179 1238.71,855.179 1238.5,853.5C 1239.74,853.19 1239.74,852.69 1238.5,852C 1236.16,851.163 1234.16,849.829 1232.5,848C 1227.2,846.613 1221.54,845.613 1215.5,845C 1216.45,844.517 1217.45,844.351 1218.5,844.5C 1228.77,842.522 1236.6,845.855 1242,854.5C 1242.11,849.523 1240.28,845.356 1236.5,842C 1237.45,841.383 1238.28,841.549 1239,842.5C 1241.42,840.406 1244.09,838.74 1247,837.5C 1247.33,837.833 1247.67,838.167 1248,838.5C 1253.39,836.769 1258.89,835.936 1264.5,836C 1260.55,839.959 1257.21,844.459 1254.5,849.5C 1254.83,849.833 1255.17,850.167 1255.5,850.5C 1258.63,847.868 1262.13,845.868 1266,844.5C 1284.45,845.464 1302.95,846.464 1321.5,847.5C 1327.97,846.564 1334.47,845.897 1341,845.5C 1349.01,845.055 1355.35,848.055 1360,854.5C 1359.96,848.995 1357.96,844.328 1354,840.5C 1353.67,840.833 1353.33,841.167 1353,841.5C 1348.97,840.465 1345.14,838.965 1341.5,837C 1343.27,834.887 1344.77,835.053 1346,837.5C 1346.67,836.422 1347.67,835.755 1349,835.5C 1351.59,836.461 1354.26,837.128 1357,837.5C 1363.36,836.345 1369.53,836.179 1375.5,837C 1377.39,838.101 1378.06,839.434 1377.5,841C 1374.71,844.387 1373.05,847.887 1372.5,851.5C 1376.11,850.196 1379.11,848.196 1381.5,845.5 Z"/></g>
<g><path style="opacity:1" fill="#812533" d="M 1528.5,942.5 C 1532.39,943.973 1536.39,944.473 1540.5,944C 1540.17,943.667 1539.83,943.333 1539.5,943C 1542.92,941.525 1546.25,939.859 1549.5,938C 1547,936.451 1547,934.784 1549.5,933C 1548.55,932.282 1548.38,931.449 1549,930.5C 1550.14,930.273 1551.3,929.94 1552.5,929.5C 1551.92,927.894 1551.59,926.228 1551.5,924.5C 1553.55,918.256 1553.88,911.922 1552.5,905.5C 1549.89,901.941 1547.06,898.607 1544,895.5C 1541.87,896.78 1539.7,896.78 1537.5,895.5C 1536.17,896.833 1534.83,898.167 1533.5,899.5C 1532.9,897.577 1532.9,895.411 1533.5,893C 1533.39,891.278 1532.89,891.112 1532,892.5C 1531.25,894.332 1530.25,895.999 1529,897.5C 1528.5,911.829 1528.33,926.163 1528.5,940.5C 1527.34,924.672 1527.17,908.672 1528,892.5C 1529.96,889.851 1532.63,888.518 1536,888.5C 1553.06,889.744 1559.56,898.744 1555.5,915.5C 1555.33,921.167 1555.17,926.833 1555,932.5C 1552.5,941 1546.83,946 1538,947.5C 1534.28,946.724 1531.11,945.057 1528.5,942.5 Z"/></g>
<g><path style="opacity:1" fill="#8b2639" d="M 1059.5,891.5 C 1059.37,892.376 1059.7,893.043 1060.5,893.5C 1069.14,889.876 1076.64,891.543 1083,898.5C 1084.61,904.954 1084.78,911.287 1083.5,917.5C 1080.75,914.174 1079.75,910.507 1080.5,906.5C 1079.06,898.703 1074.89,896.369 1068,899.5C 1065.63,909.365 1064.96,919.365 1066,929.5C 1066.45,931.519 1067.28,933.352 1068.5,935C 1068.17,935.333 1067.83,935.667 1067.5,936C 1070.81,936.057 1073.81,936.89 1076.5,938.5C 1076.8,939.15 1077.14,939.817 1077.5,940.5C 1074.46,941.437 1071.63,942.771 1069,944.5C 1065.62,943.932 1062.46,942.932 1059.5,941.5C 1058.18,924.735 1058.18,908.069 1059.5,891.5 Z"/></g>
<g><path style="opacity:1" fill="#69142e" d="M 989.5,871.5 C 990.496,871.414 991.329,871.748 992,872.5C 992.561,874.725 993.561,876.725 995,878.5C 996.695,893.639 996.862,908.639 995.5,923.5C 995.667,911.829 995.5,900.162 995,888.5C 994.24,882.452 992.407,876.786 989.5,871.5 Z"/></g>
<g><path style="opacity:1" fill="#923142" d="M 1083.5,917.5 C 1083.04,925.158 1080.71,932.158 1076.5,938.5C 1073.81,936.89 1070.81,936.057 1067.5,936C 1067.83,935.667 1068.17,935.333 1068.5,935C 1067.28,933.352 1066.45,931.519 1066,929.5C 1064.96,919.365 1065.63,909.365 1068,899.5C 1074.89,896.369 1079.06,898.703 1080.5,906.5C 1079.75,910.507 1080.75,914.174 1083.5,917.5 Z"/></g>
<g><path style="opacity:1" fill="#952e41" d="M 1528.5,942.5 C 1528.5,941.833 1528.5,941.167 1528.5,940.5C 1528.33,926.163 1528.5,911.829 1529,897.5C 1530.25,895.999 1531.25,894.332 1532,892.5C 1532.89,891.112 1533.39,891.278 1533.5,893C 1532.9,895.411 1532.9,897.577 1533.5,899.5C 1534.83,898.167 1536.17,896.833 1537.5,895.5C 1539.7,896.78 1541.87,896.78 1544,895.5C 1547.06,898.607 1549.89,901.941 1552.5,905.5C 1553.88,911.922 1553.55,918.256 1551.5,924.5C 1551.59,926.228 1551.92,927.894 1552.5,929.5C 1551.3,929.94 1550.14,930.273 1549,930.5C 1548.38,931.449 1548.55,932.282 1549.5,933C 1547,934.784 1547,936.451 1549.5,938C 1546.25,939.859 1542.92,941.525 1539.5,943C 1539.83,943.333 1540.17,943.667 1540.5,944C 1536.39,944.473 1532.39,943.973 1528.5,942.5 Z"/></g>
<g><path style="opacity:1" fill="#aa7d85" d="M 243.5,910.5 C 265.337,909.172 287.337,909.172 309.5,910.5C 309.376,911.107 309.043,911.44 308.5,911.5C 287.006,910.503 265.34,910.169 243.5,910.5 Z"/></g>
<g><path style="opacity:1" fill="#9d7376" d="M 330.5,910.5 C 349.993,909.503 369.66,909.17 389.5,909.5C 389.5,911.167 389.5,912.833 389.5,914.5C 388.566,913.432 388.232,912.099 388.5,910.5C 369.167,910.5 349.833,910.5 330.5,910.5 Z"/></g>
<g><path style="opacity:1" fill="#a0737b" d="M 556.5,910.5 C 534.327,910.169 512.327,910.503 490.5,911.5C 489.957,911.44 489.624,911.107 489.5,910.5C 511.996,909.172 534.33,909.172 556.5,910.5 Z"/></g>
<g><path style="opacity:1" fill="#912e3c" d="M 503.5,984.5 C 501.814,963.38 498.481,942.38 493.5,921.5C 493.22,918.728 493.887,916.228 495.5,914C 513.407,913.826 531.24,913.326 549,912.5C 550.868,914.756 552.368,917.256 553.5,920C 552.584,920.374 551.75,920.874 551,921.5C 543.771,918.973 536.604,919.14 529.5,922C 530.67,923.755 532.337,924.755 534.5,925C 539.887,925.784 545.22,925.618 550.5,924.5C 553.94,925.61 556.94,927.444 559.5,930C 559.5,932 559.5,934 559.5,936C 562.389,937.317 563.056,939.317 561.5,942C 562.161,944.464 562.661,946.964 563,949.5C 565.2,950.548 565.7,952.048 564.5,954C 564.983,958.801 567.15,962.635 571,965.5C 571.617,966.449 571.451,967.282 570.5,968C 571.167,968.667 571.833,969.333 572.5,970C 572.072,972.629 571.072,974.962 569.5,977C 570.5,978 571.5,979 572.5,980C 568.073,983.232 563.239,984.065 558,982.5C 545.316,984.103 533.149,984.937 521.5,985C 522.328,985.915 523.328,986.581 524.5,987C 517.842,987.5 511.175,987.666 504.5,987.5C 504.84,985.452 504.507,984.452 503.5,984.5 Z"/></g>
<g><path style="opacity:1" fill="#7c2531" d="M 1059.5,941.5 C 1062.46,942.932 1065.62,943.932 1069,944.5C 1071.63,942.771 1074.46,941.437 1077.5,940.5C 1077.14,939.817 1076.8,939.15 1076.5,938.5C 1080.71,932.158 1083.04,925.158 1083.5,917.5C 1084.78,911.287 1084.61,904.954 1083,898.5C 1076.64,891.543 1069.14,889.876 1060.5,893.5C 1059.7,893.043 1059.37,892.376 1059.5,891.5C 1059.61,890.883 1059.94,890.383 1060.5,890C 1081.14,886.638 1089.8,895.305 1086.5,916C 1086.33,921.833 1086.17,927.667 1086,933.5C 1081.09,945.703 1072.59,949.203 1060.5,944C 1059.75,943.329 1059.41,942.496 1059.5,941.5 Z"/></g>
<g><path style="opacity:1" fill="#912f3d" d="M 891.5,851.5 C 891.5,852.833 891.5,854.167 891.5,855.5C 890.469,876.605 890.803,897.772 892.5,919C 892.167,919.333 891.833,919.667 891.5,920C 892.43,923.072 893.097,926.239 893.5,929.5C 892.963,932.035 891.963,934.369 890.5,936.5C 892.044,939.108 894.377,940.442 897.5,940.5C 897.5,941.5 897.5,942.5 897.5,943.5C 880.673,949.865 880.339,956.532 896.5,963.5C 897.15,990.628 897.817,1017.63 898.5,1044.5C 898.166,1047.19 898.832,1049.52 900.5,1051.5C 898.922,1052.07 897.588,1053.07 896.5,1054.5C 897.179,1056.59 897.512,1058.59 897.5,1060.5C 895.587,1061.05 893.587,1061.22 891.5,1061C 892.974,1062.32 894.641,1063.32 896.5,1064C 897.428,1066.77 896.261,1068.27 893,1068.5C 891.893,1068.41 890.893,1068.08 890,1067.5C 890.498,1069.53 890.331,1071.53 889.5,1073.5C 886.843,1071.89 885.01,1072.55 884,1075.5C 883.316,1074.22 883.483,1073.05 884.5,1072C 883.551,1071.38 882.718,1071.55 882,1072.5C 878.762,1071.41 875.929,1070.24 873.5,1069C 874.623,1067.96 875.956,1067.29 877.5,1067C 873.128,1066.58 868.795,1065.91 864.5,1065C 868.351,1062.23 872.684,1060.23 877.5,1059C 879,1057.5 880.5,1056 882,1054.5C 882.853,1049.7 883.353,1044.87 883.5,1040C 883.258,1033.71 882.091,1027.88 880,1022.5C 879.852,1028.27 880.686,1033.94 882.5,1039.5C 881.892,1042.15 881.392,1044.81 881,1047.5C 880.617,1048.06 880.117,1048.39 879.5,1048.5C 879.391,1042.6 879.225,1036.6 879,1030.5C 878.439,1027.71 877.106,1025.38 875,1023.5C 874.267,1032.16 873.101,1040.49 871.5,1048.5C 872.611,1039.55 872.777,1030.55 872,1021.5C 871.626,1020.58 871.126,1019.75 870.5,1019C 854.887,1017.73 839.22,1017.06 823.5,1017C 822.069,1016.53 820.903,1015.7 820,1014.5C 818.891,1007.74 818.391,1000.91 818.5,994C 818.391,987.091 818.891,980.257 820,973.5C 822.758,971.357 825.924,970.19 829.5,970C 838.242,969.911 846.909,969.244 855.5,968C 857.027,962.998 857.694,957.831 857.5,952.5C 857.333,948.833 857.167,945.167 857,941.5C 856.691,940.234 856.191,939.067 855.5,938C 852.289,936.847 848.956,936.18 845.5,936C 838.5,935.667 831.5,935.333 824.5,935C 823.263,934.768 822.263,934.268 821.5,933.5C 821.735,932.903 822.235,932.57 823,932.5C 827.458,933.662 831.958,934.162 836.5,934C 834.122,933.489 831.788,932.822 829.5,932C 830.949,930.883 832.616,930.216 834.5,930C 832.314,928.691 830.147,928.524 828,929.5C 826.078,926.83 824.912,923.83 824.5,920.5C 825.516,913.861 826.349,907.194 827,900.5C 827.885,898 829.052,895.667 830.5,893.5C 838.479,892.668 846.479,892.168 854.5,892C 859.449,890.508 864.282,889.008 869,887.5C 869.5,888.667 870.333,889.5 871.5,890C 870.289,890.893 870.289,891.726 871.5,892.5C 874.176,891.162 876.842,889.829 879.5,888.5C 880.864,885.116 882.197,881.783 883.5,878.5C 881.458,871.757 880.458,865.09 880.5,858.5C 880.532,854.966 880.198,851.799 879.5,849C 881.698,846.233 884.365,845.4 887.5,846.5C 888.489,848.586 889.822,850.253 891.5,851.5 Z"/></g>
<g><path style="opacity:1" fill="#8d2b3b" d="M 960.5,933.5 C 957.616,942.887 951.283,947.387 941.5,947C 938.894,946.208 936.894,944.708 935.5,942.5C 934.422,928.188 934.255,913.855 935,899.5C 935.101,896.127 936.601,893.627 939.5,892C 944.176,892.215 948.843,892.882 953.5,894C 956.255,895.968 958.422,898.468 960,901.5C 960.667,910.833 960.667,920.167 960,929.5C 959.691,930.766 959.191,931.933 958.5,933C 959.094,933.464 959.761,933.631 960.5,933.5 Z"/></g>
<g><path style="opacity:1" fill="#93313e" d="M 415.5,988.5 C 413.833,988.5 412.167,988.5 410.5,988.5C 410.5,984.167 410.5,979.833 410.5,975.5C 411.29,974.391 411.79,973.058 412,971.5C 412.471,973.246 413.138,974.913 414,976.5C 414.045,973.666 414.879,971.166 416.5,969C 415.14,967.062 415.473,965.396 417.5,964C 417.769,955.781 417.435,947.448 416.5,939C 420.723,932.643 420.39,926.643 415.5,921C 415.667,920.167 415.833,919.333 416,918.5C 418.055,918.848 420.055,918.181 422,916.5C 422.49,915.207 422.657,913.873 422.5,912.5C 434.944,910.755 447.277,911.255 459.5,914C 456.424,915.762 453.258,915.929 450,914.5C 448.278,914.611 448.112,915.111 449.5,916C 454.656,916.088 459.656,916.921 464.5,918.5C 465.313,919.814 466.313,920.981 467.5,922C 466.191,923.751 466.525,925.251 468.5,926.5C 468.306,928.07 468.306,929.57 468.5,931C 470.422,932.46 471.089,934.127 470.5,936C 471.833,936.333 473.167,936.667 474.5,937C 473.833,937.333 473.167,937.667 472.5,938C 474.363,939.418 474.863,941.251 474,943.5C 473.086,942.346 472.253,942.513 471.5,944C 471.913,947.952 471.913,951.619 471.5,955C 471.82,956.653 472.82,957.653 474.5,958C 475.027,960.191 475.027,962.525 474.5,965C 475.293,966.085 475.96,967.252 476.5,968.5C 475.94,970.854 475.273,973.187 474.5,975.5C 471.403,976.771 471.069,978.271 473.5,980C 463.774,983.716 453.441,984.883 442.5,983.5C 433.669,986.685 424.669,988.351 415.5,988.5 Z"/></g>
<g><path style="opacity:1" fill="#8b2838" d="M 1758.5,1051.5 C 1767.51,1052.76 1776.51,1052.6 1785.5,1051C 1787.68,1050.84 1789.51,1050 1791,1048.5C 1791.67,1043.5 1791.67,1038.5 1791,1033.5C 1786.77,1009.85 1783.1,986.186 1780,962.5C 1783.25,960.793 1786.42,958.96 1789.5,957C 1792.08,954.456 1792.08,951.956 1789.5,949.5C 1785.2,946.769 1780.7,944.435 1776,942.5C 1774.62,937.245 1773.79,931.912 1773.5,926.5C 1773.65,917.606 1772.98,908.773 1771.5,900C 1772.56,896.306 1772.22,892.639 1770.5,889C 1771.02,888.439 1771.36,887.772 1771.5,887C 1769.1,880.344 1767.93,873.511 1768,866.5C 1765.41,861.816 1763.58,856.816 1762.5,851.5C 1760.97,850.139 1759.3,848.972 1757.5,848C 1746.21,846.478 1734.88,846.144 1723.5,847C 1719.14,848.224 1715.14,850.057 1711.5,852.5C 1713.12,856.221 1712.62,859.554 1710,862.5C 1710.09,870.193 1708.76,877.527 1706,884.5C 1705.28,889.22 1705.45,893.886 1706.5,898.5C 1704.58,912.595 1702.08,926.595 1699,940.5C 1698.63,941.416 1698.13,942.25 1697.5,943C 1693.22,944.473 1689.22,946.473 1685.5,949C 1682.69,952.294 1683.02,955.294 1686.5,958C 1689.41,959.373 1692.25,960.873 1695,962.5C 1693.99,974.385 1692.15,986.052 1689.5,997.5C 1688.85,996.551 1688.51,995.385 1688.5,994C 1690.85,986.206 1691.01,978.373 1689,970.5C 1687.77,967.266 1685.77,964.599 1683,962.5C 1681.66,963.214 1680.32,962.88 1679,961.5C 1678.64,957.814 1677.81,954.314 1676.5,951C 1676.44,948.739 1677.11,946.739 1678.5,945C 1678.17,944.667 1677.83,944.333 1677.5,944C 1678.46,942.581 1679.29,941.081 1680,939.5C 1682.65,936.689 1685.48,934.022 1688.5,931.5C 1690.65,924.344 1692.98,917.178 1695.5,910C 1695.17,909.667 1694.83,909.333 1694.5,909C 1696.58,905.989 1698.58,902.989 1700.5,900C 1699.35,899.086 1699.51,898.253 1701,897.5C 1701.84,892.621 1702.67,887.788 1703.5,883C 1703.68,881.34 1703.01,879.674 1701.5,878C 1702.19,870.677 1703.69,863.177 1706,855.5C 1710.07,847.13 1716.74,842.463 1726,841.5C 1736.2,841.781 1746.53,841.781 1757,841.5C 1761.05,841.843 1764.38,843.51 1767,846.5C 1769.53,853.338 1771.53,860.338 1773,867.5C 1775.11,888.6 1778.11,909.267 1782,929.5C 1784.21,932.749 1786.71,935.749 1789.5,938.5C 1796.04,939.193 1800.04,943.026 1801.5,950C 1801.01,955.251 1799.84,960.418 1798,965.5C 1795.94,966.583 1794.61,968.25 1794,970.5C 1792.96,969.377 1792.29,968.044 1792,966.5C 1787.65,972.578 1786.15,979.245 1787.5,986.5C 1788.5,986.5 1789.5,986.5 1790.5,986.5C 1792.35,993.905 1794.52,1001.24 1797,1008.5C 1797.83,1019 1798.67,1029.5 1799.5,1040C 1799.57,1044.58 1799.07,1049.08 1798,1053.5C 1796.66,1056.09 1794.49,1057.59 1791.5,1058C 1785.25,1059.7 1778.92,1060.86 1772.5,1061.5C 1764.53,1061.68 1758.03,1058.68 1753,1052.5C 1751,1049.5 1751,1046.5 1753,1043.5C 1753.64,1045.76 1754.48,1047.93 1755.5,1050C 1753.07,1050.45 1752.9,1051.28 1755,1052.5C 1756.14,1052.38 1757.31,1052.05 1758.5,1051.5 Z"/></g>
<g><path style="opacity:1" fill="#80202f" d="M 1773.5,926.5 C 1769.26,905.376 1765.43,884.043 1762,862.5C 1761.43,859.681 1760.09,857.348 1758,855.5C 1745.92,853.508 1733.75,853.008 1721.5,854C 1716.01,854.157 1713.18,856.99 1713,862.5C 1710.7,874.618 1708.54,886.618 1706.5,898.5C 1705.45,893.886 1705.28,889.22 1706,884.5C 1708.76,877.527 1710.09,870.193 1710,862.5C 1712.62,859.554 1713.12,856.221 1711.5,852.5C 1715.14,850.057 1719.14,848.224 1723.5,847C 1734.88,846.144 1746.21,846.478 1757.5,848C 1759.3,848.972 1760.97,850.139 1762.5,851.5C 1763.58,856.816 1765.41,861.816 1768,866.5C 1767.93,873.511 1769.1,880.344 1771.5,887C 1771.36,887.772 1771.02,888.439 1770.5,889C 1772.22,892.639 1772.56,896.306 1771.5,900C 1772.98,908.773 1773.65,917.606 1773.5,926.5 Z"/></g>
<g><path style="opacity:1" fill="#902f3d" d="M 243.5,910.5 C 265.34,910.169 287.006,910.503 308.5,911.5C 300.816,936.921 296.483,962.921 295.5,989.5C 270.167,989.5 244.833,989.5 219.5,989.5C 220.681,960.966 228.681,934.632 243.5,910.5 Z"/></g>
<g><path style="opacity:1" fill="#882b36" d="M 556.5,910.5 C 570.033,935.102 577.7,961.435 579.5,989.5C 554.167,989.5 528.833,989.5 503.5,989.5C 503.5,987.833 503.5,986.167 503.5,984.5C 504.507,984.452 504.84,985.452 504.5,987.5C 511.175,987.666 517.842,987.5 524.5,987C 523.328,986.581 522.328,985.915 521.5,985C 533.149,984.937 545.316,984.103 558,982.5C 563.239,984.065 568.073,983.232 572.5,980C 571.5,979 570.5,978 569.5,977C 571.072,974.962 572.072,972.629 572.5,970C 571.833,969.333 571.167,968.667 570.5,968C 571.451,967.282 571.617,966.449 571,965.5C 567.15,962.635 564.983,958.801 564.5,954C 565.7,952.048 565.2,950.548 563,949.5C 562.661,946.964 562.161,944.464 561.5,942C 563.056,939.317 562.389,937.317 559.5,936C 559.5,934 559.5,932 559.5,930C 556.94,927.444 553.94,925.61 550.5,924.5C 545.22,925.618 539.887,925.784 534.5,925C 532.337,924.755 530.67,923.755 529.5,922C 536.604,919.14 543.771,918.973 551,921.5C 551.75,920.874 552.584,920.374 553.5,920C 552.368,917.256 550.868,914.756 549,912.5C 531.24,913.326 513.407,913.826 495.5,914C 493.887,916.228 493.22,918.728 493.5,921.5C 492.21,918.358 491.21,915.025 490.5,911.5C 512.327,910.503 534.327,910.169 556.5,910.5 Z"/></g>
<g><path style="opacity:1" fill="#8a2f3b" d="M 330.5,910.5 C 349.833,910.5 369.167,910.5 388.5,910.5C 388.232,912.099 388.566,913.432 389.5,914.5C 389.831,939.672 389.498,964.672 388.5,989.5C 388.649,988.448 388.483,987.448 388,986.5C 367.226,988.154 346.392,989.154 325.5,989.5C 322.167,989.5 318.833,989.5 315.5,989.5C 315.775,967.565 319.108,946.231 325.5,925.5C 326.598,920.205 328.265,915.205 330.5,910.5 Z"/></g>
<g><path style="opacity:1" fill="#8a2f3d" d="M 412.5,909.5 C 431.17,909.333 449.836,909.5 468.5,910C 476.57,932.117 481.237,954.95 482.5,978.5C 481.523,981.287 481.19,984.287 481.5,987.5C 459.533,988.468 437.533,988.801 415.5,988.5C 424.669,988.351 433.669,986.685 442.5,983.5C 453.441,984.883 463.774,983.716 473.5,980C 471.069,978.271 471.403,976.771 474.5,975.5C 475.273,973.187 475.94,970.854 476.5,968.5C 475.96,967.252 475.293,966.085 474.5,965C 475.027,962.525 475.027,960.191 474.5,958C 472.82,957.653 471.82,956.653 471.5,955C 471.913,951.619 471.913,947.952 471.5,944C 472.253,942.513 473.086,942.346 474,943.5C 474.863,941.251 474.363,939.418 472.5,938C 473.167,937.667 473.833,937.333 474.5,937C 473.167,936.667 471.833,936.333 470.5,936C 471.089,934.127 470.422,932.46 468.5,931C 468.306,929.57 468.306,928.07 468.5,926.5C 466.525,925.251 466.191,923.751 467.5,922C 466.313,920.981 465.313,919.814 464.5,918.5C 459.656,916.921 454.656,916.088 449.5,916C 448.112,915.111 448.278,914.611 450,914.5C 453.258,915.929 456.424,915.762 459.5,914C 447.277,911.255 434.944,910.755 422.5,912.5C 422.657,913.873 422.49,915.207 422,916.5C 420.055,918.181 418.055,918.848 416,918.5C 415.833,919.333 415.667,920.167 415.5,921C 420.39,926.643 420.723,932.643 416.5,939C 417.435,947.448 417.769,955.781 417.5,964C 415.473,965.396 415.14,967.062 416.5,969C 414.879,971.166 414.045,973.666 414,976.5C 413.138,974.913 412.471,973.246 412,971.5C 411.79,973.058 411.29,974.391 410.5,975.5C 410.333,954.831 410.5,934.164 411,913.5C 412.188,912.437 412.688,911.103 412.5,909.5 Z"/></g>
<g><path style="opacity:1" fill="#932f3e" d="M 325.5,925.5 C 328.358,921.338 330.358,916.672 331.5,911.5C 346.331,913.141 361.331,913.975 376.5,914C 378.779,914.473 380.779,915.473 382.5,917C 381.167,917.333 379.833,917.667 378.5,918C 380.167,919 381.833,920 383.5,921C 383.484,925.359 383.317,929.859 383,934.5C 381.982,938.291 381.149,942.125 380.5,946C 380.485,952.732 380.652,959.565 381,966.5C 381.422,968.355 381.922,970.189 382.5,972C 381.427,973.416 381.427,974.75 382.5,976C 380.606,977.079 380.273,978.413 381.5,980C 378.751,981.123 376.251,982.623 374,984.5C 363.749,984.325 353.582,984.158 343.5,984C 342.027,984.71 341.36,985.876 341.5,987.5C 333.457,987.435 325.623,987.435 318,987.5C 318.166,976.159 318.833,964.826 320,953.5C 321.943,948.177 324.443,943.177 327.5,938.5C 326.5,937.833 325.5,937.167 324.5,936.5C 325.426,932.906 325.759,929.24 325.5,925.5 Z"/></g>
<g><path style="opacity:1" fill="#a23449" d="M 1731.5,960.5 C 1731.79,957.061 1732.45,953.728 1733.5,950.5C 1735.72,950.264 1737.88,950.264 1740,950.5C 1741.39,954.901 1742.23,959.401 1742.5,964C 1742.7,971.365 1739.37,974.198 1732.5,972.5C 1732.82,968.298 1732.48,964.298 1731.5,960.5 Z"/></g>
<g><path style="opacity:1" fill="#923241" d="M 1138.5,1027.5 C 1138.8,1033.58 1138.3,1039.58 1137,1045.5C 1134.42,1039.47 1132.75,1033.13 1132,1026.5C 1131.51,1028.13 1131.34,1029.8 1131.5,1031.5C 1127.96,1011.65 1123.29,991.985 1117.5,972.5C 1118.43,966.481 1121.09,961.314 1125.5,957C 1126.9,956.405 1128.23,956.572 1129.5,957.5C 1130.97,962.45 1133.47,966.783 1137,970.5C 1137.29,967.046 1138.63,966.712 1141,969.5C 1141.3,971.888 1142.14,974.055 1143.5,976C 1142.86,978.984 1142.86,982.151 1143.5,985.5C 1141.83,993.55 1140.33,1001.55 1139,1009.5C 1138.5,1015.49 1138.33,1021.49 1138.5,1027.5 Z"/></g>
<g><path style="opacity:1" fill="#933b42" d="M 1731.5,960.5 C 1732.48,964.298 1732.82,968.298 1732.5,972.5C 1739.37,974.198 1742.7,971.365 1742.5,964C 1742.23,959.401 1741.39,954.901 1740,950.5C 1737.88,950.264 1735.72,950.264 1733.5,950.5C 1733.66,947.326 1734.66,944.493 1736.5,942C 1738.41,941.552 1739.58,942.385 1740,944.5C 1743.18,953.913 1744.51,963.58 1744,973.5C 1739.67,974.833 1735.33,974.833 1731,973.5C 1730.37,969.129 1730.54,964.796 1731.5,960.5 Z"/></g>
<g><path style="opacity:1" fill="#7e2333" d="M 1010.5,957.5 C 1014.88,959.441 1019.05,961.774 1023,964.5C 1023.17,993.239 1023.67,1021.91 1024.5,1050.5C 1023.5,1050.5 1022.5,1050.5 1021.5,1050.5C 1021.72,1048.66 1022.06,1046.82 1022.5,1045C 1021.69,1021.52 1021.19,998.02 1021,974.5C 1018.1,968.936 1014.44,963.936 1010,959.5C 1009.31,958.563 1009.47,957.897 1010.5,957.5 Z"/></g>
<g><path style="opacity:1" fill="#662425" d="M 388.5,989.5 C 367.5,989.5 346.5,989.5 325.5,989.5C 346.392,989.154 367.226,988.154 388,986.5C 388.483,987.448 388.649,988.448 388.5,989.5 Z"/></g>
<g><path style="opacity:1" fill="#6c262a" d="M 412.5,909.5 C 412.688,911.103 412.188,912.437 411,913.5C 410.5,934.164 410.333,954.831 410.5,975.5C 410.5,979.833 410.5,984.167 410.5,988.5C 412.167,988.5 413.833,988.5 415.5,988.5C 437.533,988.801 459.533,988.468 481.5,987.5C 481.19,984.287 481.523,981.287 482.5,978.5C 482.942,982.154 483.276,985.821 483.5,989.5C 458.833,989.5 434.167,989.5 409.5,989.5C 409.5,962.833 409.5,936.167 409.5,909.5C 410.5,909.5 411.5,909.5 412.5,909.5 Z"/></g>
<g><path style="opacity:1" fill="#892e41" d="M 962.5,1044.5 C 959.76,1041.36 957.927,1038.03 957,1034.5C 956.667,1035.5 956.333,1036.5 956,1037.5C 955.31,1035.28 954.476,1033.12 953.5,1031C 954.299,1025.74 954.466,1020.24 954,1014.5C 953.581,1018.85 952.914,1019.19 952,1015.5C 951.346,1014.3 950.846,1014.3 950.5,1015.5C 950.55,1018.93 950.55,1022.27 950.5,1025.5C 949.59,1023.98 948.757,1022.31 948,1020.5C 947.859,1016.41 947.692,1012.41 947.5,1008.5C 946.619,1012.38 945.286,1016.04 943.5,1019.5C 942.066,1018.06 940.9,1016.4 940,1014.5C 941.519,1024.71 942.186,1035.05 942,1045.5C 941.434,1038.77 940.434,1032.1 939,1025.5C 938.667,1031.83 938.333,1038.17 938,1044.5C 937.803,1046.86 936.636,1048.53 934.5,1049.5C 935.711,1050.72 935.711,1051.89 934.5,1053C 929.902,1054.34 924.902,1055.18 919.5,1055.5C 917.031,1053.83 912.365,1052.99 905.5,1053C 906.056,1052.62 906.389,1052.12 906.5,1051.5C 913.841,1051.67 921.174,1051.5 928.5,1051C 929.766,1050.69 930.933,1050.19 932,1049.5C 932.333,1029.17 932.667,1008.83 933,988.5C 933.471,986.754 934.138,985.087 935,983.5C 941.513,977.477 946.18,978.811 949,987.5C 953.694,1006.47 958.194,1025.47 962.5,1044.5 Z"/></g>
<g><path style="opacity:1" fill="#761d29" d="M 774.5,959.5 C 777.236,960.95 780.069,962.284 783,963.5C 783.5,991.498 783.667,1019.5 783.5,1047.5C 782.668,1025 782.168,1002.34 782,979.5C 781.754,976.11 781.254,972.777 780.5,969.5C 777.961,966.463 775.294,963.63 772.5,961C 773.044,960.283 773.711,959.783 774.5,959.5 Z"/></g>
<g><path style="opacity:1" fill="#8d2f3e" d="M 1689.5,998.5 C 1687.66,1011.21 1685.49,1023.88 1683,1036.5C 1682.2,1041.42 1682.37,1046.25 1683.5,1051C 1694.6,1051.95 1705.6,1051.62 1716.5,1050C 1719.7,1038.35 1722.2,1026.52 1724,1014.5C 1724.58,1013 1725.42,1011.67 1726.5,1010.5C 1735.09,1005.77 1742.93,1006.77 1750,1013.5C 1751.98,1020.02 1753.15,1026.69 1753.5,1033.5C 1753.65,1034.55 1753.48,1035.55 1753,1036.5C 1752.39,1028.42 1750.39,1020.75 1747,1013.5C 1733.13,1006.48 1725.3,1010.48 1723.5,1025.5C 1727.25,1035.28 1726.59,1044.45 1721.5,1053C 1711.67,1059.11 1701.01,1061.11 1689.5,1059C 1686.45,1056.93 1683.78,1054.43 1681.5,1051.5C 1680.61,1052.32 1680.28,1053.32 1680.5,1054.5C 1677.34,1054.52 1674.67,1053.35 1672.5,1051C 1671.76,1049.27 1671.76,1047.27 1672.5,1045C 1669.96,1041.29 1667.63,1037.46 1665.5,1033.5C 1664.27,1034.65 1664.27,1035.82 1665.5,1037C 1662.12,1041.27 1659.95,1046.1 1659,1051.5C 1658.05,1053.57 1656.55,1055.07 1654.5,1056C 1644.75,1058.1 1635.09,1059.27 1625.5,1059.5C 1623.88,1058.85 1622.22,1058.35 1620.5,1058C 1616.56,1055.08 1613.23,1051.58 1610.5,1047.5C 1609.17,1050.5 1609.17,1053.5 1610.5,1056.5C 1612.51,1058 1614.17,1059.83 1615.5,1062C 1614.02,1061.94 1613.19,1063.11 1613,1065.5C 1612.25,1064.87 1611.42,1064.37 1610.5,1064C 1611.83,1063.33 1611.83,1062.67 1610.5,1062C 1608.29,1060.96 1605.95,1060.29 1603.5,1060C 1605.51,1059.12 1605.51,1057.79 1603.5,1056C 1603.54,1052.23 1603.87,1048.39 1604.5,1044.5C 1603.45,1040.73 1602.11,1037.06 1600.5,1033.5C 1601.47,1038.36 1601.47,1043.36 1600.5,1048.5C 1599.99,1042.13 1599.16,1035.8 1598,1029.5C 1594.73,1015.69 1591.06,1002.03 1587,988.5C 1585.95,986.91 1584.79,985.41 1583.5,984C 1583.05,982.896 1583.05,981.229 1583.5,979C 1582.83,978.667 1582.17,978.333 1581.5,978C 1582.83,976.16 1582.67,975.66 1581,976.5C 1580.67,975.5 1580.33,974.5 1580,973.5C 1581.99,981.292 1583.15,989.292 1583.5,997.5C 1580.41,988.816 1578.08,979.816 1576.5,970.5C 1576.52,968.366 1577.02,966.366 1578,964.5C 1582.1,959.295 1585.44,953.628 1588,947.5C 1588.67,926.5 1588.67,905.5 1588,884.5C 1587.26,881.454 1586.43,878.454 1585.5,875.5C 1587.22,876.574 1588.22,878.241 1588.5,880.5C 1589.32,881.386 1590.32,881.719 1591.5,881.5C 1592.5,881.53 1593.16,881.03 1593.5,880C 1592.39,878.323 1592.39,876.823 1593.5,875.5C 1594.62,878.042 1595.46,880.708 1596,883.5C 1597.18,902.488 1598.18,921.488 1599,940.5C 1599.67,941.167 1600.33,941.833 1601,942.5C 1604.59,939.955 1608.09,937.288 1611.5,934.5C 1612.25,935.376 1612.75,936.376 1613,937.5C 1614.5,933.088 1614.5,928.755 1613,924.5C 1612.67,925.167 1612.33,925.833 1612,926.5C 1611.01,909.057 1609.17,891.724 1606.5,874.5C 1606.86,873.817 1607.2,873.15 1607.5,872.5C 1607.52,868.389 1608.19,864.389 1609.5,860.5C 1607.77,856.748 1608.44,853.248 1611.5,850C 1614.56,847.277 1617.89,844.944 1621.5,843C 1632.3,840.892 1642.63,841.558 1652.5,845C 1656.38,848.264 1658.55,852.43 1659,857.5C 1659.94,867.31 1660.44,877.143 1660.5,887C 1659.69,903.503 1659.19,920.003 1659,936.5C 1659.29,938.931 1660.46,940.764 1662.5,942C 1662.17,942.333 1661.83,942.667 1661.5,943C 1665.2,945.186 1668.53,947.853 1671.5,951C 1670.46,952.617 1669.3,952.784 1668,951.5C 1667.52,952.448 1667.35,953.448 1667.5,954.5C 1668.87,954.343 1670.21,954.51 1671.5,955C 1670.83,955.333 1670.17,955.667 1669.5,956C 1670.8,956.804 1671.47,957.971 1671.5,959.5C 1669.09,962.577 1667.09,965.91 1665.5,969.5C 1664.25,970.04 1663.09,970.707 1662,971.5C 1661.67,971.167 1661.33,970.833 1661,970.5C 1660.29,972.081 1659.46,973.581 1658.5,975C 1658.62,978.651 1659.12,982.484 1660,986.5C 1660.33,986.167 1660.67,985.833 1661,985.5C 1662.83,986.659 1664.49,987.992 1666,989.5C 1666.33,988.167 1666.67,986.833 1667,985.5C 1667.38,989.918 1666.88,994.251 1665.5,998.5C 1665.83,998.833 1666.17,999.167 1666.5,999.5C 1667.25,998.624 1667.75,997.624 1668,996.5C 1668.87,1005.28 1670.53,1005.61 1673,997.5C 1673.67,1000.17 1674.33,1000.17 1675,997.5C 1675.33,998.167 1675.67,998.833 1676,999.5C 1676.67,996.5 1676.67,993.5 1676,990.5C 1675.33,991.833 1674.33,992.833 1673,993.5C 1672.08,990.204 1670.91,987.037 1669.5,984C 1669.88,981.527 1671.38,979.36 1674,977.5C 1675.31,979.891 1676.31,979.891 1677,977.5C 1677.41,977.957 1677.91,978.291 1678.5,978.5C 1680.21,987.082 1681.38,995.749 1682,1004.5C 1682.74,1005.64 1683.57,1005.64 1684.5,1004.5C 1685.85,1002.15 1687.52,1000.15 1689.5,998.5 Z"/></g>
<g><path style="opacity:1" fill="#fdfcfc" d="M 1622.5,853.5 C 1630.51,853.334 1638.51,853.5 1646.5,854C 1648.33,854.273 1649.83,855.107 1651,856.5C 1651.33,885.167 1651.67,913.833 1652,942.5C 1655.42,944.461 1658.92,946.294 1662.5,948C 1665.17,951.333 1665.17,954.667 1662.5,958C 1658.77,959.461 1655.27,961.294 1652,963.5C 1651.79,992.519 1651.29,1021.52 1650.5,1050.5C 1639.96,1051.78 1629.46,1051.78 1619,1050.5C 1617.69,1021.89 1617.02,993.228 1617,964.5C 1613.96,961.721 1610.46,959.555 1606.5,958C 1603.48,955.736 1602.81,952.903 1604.5,949.5C 1607.73,946.752 1611.4,944.752 1615.5,943.5C 1616.28,942.271 1616.78,940.938 1617,939.5C 1617.33,911.833 1617.67,884.167 1618,856.5C 1619.41,855.219 1620.91,854.219 1622.5,853.5 Z"/></g>
<g><path style="opacity:1" fill="#852b3b" d="M 1446.5,969.5 C 1446.59,970.496 1446.25,971.329 1445.5,972C 1438.91,973.754 1432.24,975.087 1425.5,976C 1423.38,977.122 1421.54,978.622 1420,980.5C 1419.74,982.163 1420.24,983.663 1421.5,985C 1420.83,985.333 1420.17,985.667 1419.5,986C 1420.79,988.272 1421.46,990.439 1421.5,992.5C 1418.13,997.537 1417.79,1002.7 1420.5,1008C 1420.17,1008.33 1419.83,1008.67 1419.5,1009C 1420.97,1010.32 1422.64,1011.32 1424.5,1012C 1434.81,1013.67 1445.15,1014 1455.5,1013C 1457.81,1013.99 1460.15,1015.15 1462.5,1016.5C 1463.69,1017.27 1464.69,1018.27 1465.5,1019.5C 1463.82,1019.11 1462.15,1018.61 1460.5,1018C 1446.5,1017.67 1432.5,1017.33 1418.5,1017C 1416,1015.83 1414.17,1014 1413,1011.5C 1411.47,1001.55 1411.14,991.552 1412,981.5C 1411.53,976.263 1413.69,972.763 1418.5,971C 1427.87,970.752 1437.2,970.252 1446.5,969.5 Z"/></g>
<g><path style="opacity:1" fill="#e6dadb" d="M 897.5,963.5 C 898.832,974.647 899.499,986.147 899.5,998C 899.5,1009.67 899.167,1021.17 898.5,1032.5C 898.822,1009.43 898.489,986.425 897.5,963.5 Z"/></g>
<g><path style="opacity:1" fill="#902e3c" d="M 491.5,1083.5 C 491.41,1080.85 492.076,1078.51 493.5,1076.5C 494.496,1076.59 495.329,1076.25 496,1075.5C 496.333,1073.17 496.667,1070.83 497,1068.5C 500.057,1064.59 502.391,1060.26 504,1055.5C 504.27,1052.78 504.77,1050.11 505.5,1047.5C 505.695,1039.32 505.361,1030.82 504.5,1022C 504.667,1019.17 504.833,1016.33 505,1013.5C 505.5,1013 506,1012.5 506.5,1012C 521.407,1010.37 536.407,1010.03 551.5,1011C 558.616,1012.3 565.616,1013.97 572.5,1016C 576.19,1018.12 576.19,1019.95 572.5,1021.5C 567.193,1028.29 563.526,1035.79 561.5,1044C 562.661,1046.72 561.994,1049.05 559.5,1051C 559.833,1051.33 560.167,1051.67 560.5,1052C 559.751,1053.73 559.251,1055.57 559,1057.5C 556.945,1064.02 553.779,1070.35 549.5,1076.5C 547.988,1077.86 546.488,1078.2 545,1077.5C 544.082,1079.63 542.749,1080.3 541,1079.5C 538.118,1080.54 535.118,1081.21 532,1081.5C 524.54,1081.06 517.207,1080.06 510,1078.5C 509.833,1078.83 509.667,1079.17 509.5,1079.5C 514.997,1081.46 520.664,1082.62 526.5,1083C 515.352,1085.04 504.019,1086.21 492.5,1086.5C 492.737,1085.21 492.404,1084.21 491.5,1083.5 Z"/></g>
<g><path style="opacity:1" fill="#912e3e" d="M 239.5,1081.5 C 232.879,1069.98 228.213,1057.65 225.5,1044.5C 225.888,1040.58 225.221,1036.91 223.5,1033.5C 223.389,1026.58 223.723,1019.75 224.5,1013C 233.596,1011.87 242.762,1011.37 252,1011.5C 266.335,1011.75 280.502,1012.08 294.5,1012.5C 295.128,1029.49 295.628,1046.49 296,1063.5C 301.498,1077.83 297.331,1082.17 283.5,1076.5C 282.692,1076.81 282.025,1077.31 281.5,1078C 273.158,1079.88 264.824,1081.22 256.5,1082C 257.167,1082.33 257.833,1082.67 258.5,1083C 251.959,1084.03 245.626,1083.53 239.5,1081.5 Z"/></g>
<g><path style="opacity:1" fill="#922e3f" d="M 388.5,1063.5 C 388.5,1071.83 388.5,1080.17 388.5,1088.5C 369.167,1088.5 349.833,1088.5 330.5,1088.5C 327.854,1083.22 326.187,1077.55 325.5,1071.5C 327.001,1074.17 328.001,1074.01 328.5,1071C 328.135,1068.74 327.469,1066.57 326.5,1064.5C 327.415,1063.67 328.081,1062.67 328.5,1061.5C 327.383,1058.93 326.55,1056.26 326,1053.5C 325.44,1044.66 323.94,1036.33 321.5,1028.5C 321.923,1025.4 322.923,1022.56 324.5,1020C 323.362,1018.27 322.862,1016.43 323,1014.5C 328.529,1014.76 334.196,1015.42 340,1016.5C 340.561,1015.98 341.228,1015.64 342,1015.5C 352.8,1016.3 363.633,1016.8 374.5,1017C 376.824,1018.16 379.158,1019.33 381.5,1020.5C 382.321,1022.78 382.988,1025.12 383.5,1027.5C 382.857,1033.34 382.19,1039.17 381.5,1045C 382.115,1050.95 382.449,1057.12 382.5,1063.5C 384.5,1063.5 386.5,1063.5 388.5,1063.5 Z"/></g>
<g><path style="opacity:1" fill="#792833" d="M 482.5,1020.5 C 482.663,1018.14 482.497,1015.81 482,1013.5C 481.228,1012.15 480.061,1011.32 478.5,1011C 456.836,1010.5 435.169,1010.33 413.5,1010.5C 413.688,1012.1 413.188,1013.44 412,1014.5C 411.507,1038.84 411.007,1063.17 410.5,1087.5C 429.512,1087.83 448.512,1087.5 467.5,1086.5C 466.738,1084.22 467.738,1082.89 470.5,1082.5C 470.131,1084.44 469.464,1086.27 468.5,1088C 448.836,1088.5 429.169,1088.67 409.5,1088.5C 409.5,1062.17 409.5,1035.83 409.5,1009.5C 434.167,1009.5 458.833,1009.5 483.5,1009.5C 483.815,1013.37 483.482,1017.04 482.5,1020.5 Z"/></g>
<g><path style="opacity:1" fill="#813c4b" d="M 896.5,963.5 C 896.833,963.5 897.167,963.5 897.5,963.5C 898.489,986.425 898.822,1009.43 898.5,1032.5C 898.5,1036.5 898.5,1040.5 898.5,1044.5C 897.817,1017.63 897.15,990.628 896.5,963.5 Z"/></g>
<g><path style="opacity:1" fill="#882a38" d="M 554.5,1088.5 C 532.993,1088.83 511.66,1088.5 490.5,1087.5C 490.232,1085.9 490.566,1084.57 491.5,1083.5C 492.404,1084.21 492.737,1085.21 492.5,1086.5C 504.019,1086.21 515.352,1085.04 526.5,1083C 520.664,1082.62 514.997,1081.46 509.5,1079.5C 509.667,1079.17 509.833,1078.83 510,1078.5C 517.207,1080.06 524.54,1081.06 532,1081.5C 535.118,1081.21 538.118,1080.54 541,1079.5C 542.749,1080.3 544.082,1079.63 545,1077.5C 546.488,1078.2 547.988,1077.86 549.5,1076.5C 553.779,1070.35 556.945,1064.02 559,1057.5C 559.251,1055.57 559.751,1053.73 560.5,1052C 560.167,1051.67 559.833,1051.33 559.5,1051C 561.994,1049.05 562.661,1046.72 561.5,1044C 563.526,1035.79 567.193,1028.29 572.5,1021.5C 576.19,1019.95 576.19,1018.12 572.5,1016C 565.616,1013.97 558.616,1012.3 551.5,1011C 536.407,1010.03 521.407,1010.37 506.5,1012C 506,1012.5 505.5,1013 505,1013.5C 504.833,1016.33 504.667,1019.17 504.5,1022C 505.361,1030.82 505.695,1039.32 505.5,1047.5C 504.77,1050.11 504.27,1052.78 504,1055.5C 502.391,1060.26 500.057,1064.59 497,1068.5C 496.667,1070.83 496.333,1073.17 496,1075.5C 495.329,1076.25 494.496,1076.59 493.5,1076.5C 498.696,1054.46 502.03,1032.13 503.5,1009.5C 528.833,1009.5 554.167,1009.5 579.5,1009.5C 577.284,1037.03 569.784,1063.03 557,1087.5C 556.329,1088.25 555.496,1088.59 554.5,1088.5 Z"/></g>
<g><path style="opacity:1" fill="#852434" d="M 388.5,1009.5 C 388.5,1027.5 388.5,1045.5 388.5,1063.5C 386.5,1063.5 384.5,1063.5 382.5,1063.5C 382.449,1057.12 382.115,1050.95 381.5,1045C 382.19,1039.17 382.857,1033.34 383.5,1027.5C 382.988,1025.12 382.321,1022.78 381.5,1020.5C 379.158,1019.33 376.824,1018.16 374.5,1017C 363.633,1016.8 352.8,1016.3 342,1015.5C 341.228,1015.64 340.561,1015.98 340,1016.5C 334.196,1015.42 328.529,1014.76 323,1014.5C 322.862,1016.43 323.362,1018.27 324.5,1020C 322.923,1022.56 321.923,1025.4 321.5,1028.5C 323.94,1036.33 325.44,1044.66 326,1053.5C 326.55,1056.26 327.383,1058.93 328.5,1061.5C 328.081,1062.67 327.415,1063.67 326.5,1064.5C 327.469,1066.57 328.135,1068.74 328.5,1071C 328.001,1074.01 327.001,1074.17 325.5,1071.5C 322.781,1063.1 320.614,1054.44 319,1045.5C 317.268,1033.55 316.101,1021.55 315.5,1009.5C 339.833,1009.5 364.167,1009.5 388.5,1009.5 Z"/></g>
<g><path style="opacity:1" fill="#8b2a39" d="M 482.5,1020.5 C 481.081,1041.68 477.081,1062.35 470.5,1082.5C 467.738,1082.89 466.738,1084.22 467.5,1086.5C 448.512,1087.5 429.512,1087.83 410.5,1087.5C 411.007,1063.17 411.507,1038.84 412,1014.5C 413.188,1013.44 413.688,1012.1 413.5,1010.5C 435.169,1010.33 456.836,1010.5 478.5,1011C 480.061,1011.32 481.228,1012.15 482,1013.5C 482.497,1015.81 482.663,1018.14 482.5,1020.5 Z"/></g>
<g><path style="opacity:1" fill="#93303d" d="M 443.5,1014.5 C 451.38,1015.54 459.547,1015.54 468,1014.5C 475.195,1016.81 475.029,1017.47 467.5,1016.5C 467.67,1017.82 467.337,1018.99 466.5,1020C 468.368,1020 470.202,1019.5 472,1018.5C 473.833,1019 475,1020.17 475.5,1022C 474.324,1027.37 472.991,1032.7 471.5,1038C 472.259,1041.2 471.592,1044.2 469.5,1047C 470.022,1047.56 470.355,1048.23 470.5,1049C 467.809,1054.11 466.809,1059.45 467.5,1065C 466.17,1070.48 465.004,1075.98 464,1081.5C 462.518,1079.22 460.851,1079.22 459,1081.5C 449.355,1082.19 439.521,1083.53 429.5,1085.5C 427.402,1084.62 425.235,1083.62 423,1082.5C 421.739,1082.76 420.739,1083.43 420,1084.5C 418.933,1083.81 417.766,1083.31 416.5,1083C 415.875,1080.2 415.208,1077.37 414.5,1074.5C 413.692,1074.19 413.025,1073.69 412.5,1073C 414.091,1070.61 415.091,1067.95 415.5,1065C 415.167,1064.67 414.833,1064.33 414.5,1064C 415.216,1056.55 415.883,1049.05 416.5,1041.5C 416.437,1036.66 416.437,1031.82 416.5,1027C 415.971,1025.44 415.304,1023.94 414.5,1022.5C 415.99,1021.17 417.324,1019.67 418.5,1018C 420.235,1017.35 421.902,1017.52 423.5,1018.5C 425.507,1017.83 427.34,1016.83 429,1015.5C 430,1015.83 431,1016.17 432,1016.5C 435.985,1015.93 439.818,1015.26 443.5,1014.5 Z"/></g>
<g><path style="opacity:1" fill="#8b2739" d="M 547.5,1150.5 C 551.81,1145.35 555.977,1140.01 560,1134.5C 560.066,1131.72 561.232,1129.56 563.5,1128C 562.366,1126.98 562.699,1126.32 564.5,1126C 564.694,1124.57 564.694,1123.07 564.5,1121.5C 563.476,1122.85 562.143,1123.52 560.5,1123.5C 569.076,1109.02 577.576,1094.35 586,1079.5C 587.288,1073.82 588.455,1068.15 589.5,1062.5C 605.62,1010.81 602.287,960.481 579.5,911.5C 577.456,903.565 575.289,895.232 573,886.5C 571.846,885.257 570.512,884.257 569,883.5C 565.662,877.488 561.828,871.821 557.5,866.5C 546.296,856.954 535.629,846.787 525.5,836C 520.657,834.48 515.823,832.98 511,831.5C 509.726,830.465 508.56,829.298 507.5,828C 500.614,824.726 493.947,821.226 487.5,817.5C 489.584,818.248 491.584,818.248 493.5,817.5C 501.113,821.143 508.446,825.143 515.5,829.5C 516.521,828.998 516.688,828.332 516,827.5C 513.742,824.078 510.576,822.078 506.5,821.5C 504.717,819.768 502.717,818.268 500.5,817C 507.488,818.449 513.821,821.449 519.5,826C 521.878,826.511 524.212,827.178 526.5,828C 529.322,830.913 532.655,833.08 536.5,834.5C 540.048,837.531 542.548,841.198 544,845.5C 547.274,847.759 547.107,848.592 543.5,848C 545.494,850.827 547.828,853.327 550.5,855.5C 550.736,854.753 551.07,853.92 551.5,853C 552.784,852.316 553.951,852.483 555,853.5C 558.08,857.975 561.413,862.308 565,866.5C 571.903,879.074 579.237,891.408 587,903.5C 596.977,923.518 603.143,944.352 605.5,966C 604.299,966.903 603.465,968.069 603,969.5C 602.667,968.833 602.333,968.167 602,967.5C 599.971,972.884 600.137,978.217 602.5,983.5C 600.342,999.01 600.009,1014.51 601.5,1030C 600.584,1030.37 599.75,1030.87 599,1031.5C 596.382,1037.53 597.215,1043.03 601.5,1048C 600.833,1049.67 600.167,1051.33 599.5,1053C 599.577,1056.73 599.577,1060.4 599.5,1064C 592.119,1087.27 580.953,1108.43 566,1127.5C 562.216,1136.52 556.049,1144.18 547.5,1150.5 Z"/></g>
<g><path style="opacity:1" fill="#923140" d="M 1024.5,1050.5 C 1034.81,1051.57 1045.14,1051.73 1055.5,1051C 1056,1050.5 1056.5,1050 1057,1049.5C 1058.29,1027.88 1058.96,1006.22 1059,984.5C 1059.42,982.574 1060.59,981.574 1062.5,981.5C 1063.95,982.302 1065.62,982.802 1067.5,983C 1072.88,988.777 1075.55,995.777 1075.5,1004C 1075.38,1006.04 1075.05,1008.04 1074.5,1010C 1074.91,1010.95 1075.57,1011.61 1076.5,1012C 1075.92,1012.89 1075.59,1013.89 1075.5,1015C 1076.75,1020.82 1077.91,1026.65 1079,1032.5C 1081.36,1039.2 1083.03,1045.86 1084,1052.5C 1085.94,1054.72 1087.61,1054.72 1089,1052.5C 1089.62,1054.99 1091.46,1056.99 1094.5,1058.5C 1093.71,1060.26 1092.37,1061.59 1090.5,1062.5C 1091.03,1063.19 1091.69,1063.69 1092.5,1064C 1092.5,1065.67 1092.5,1067.33 1092.5,1069C 1090.97,1069.92 1089.3,1070.42 1087.5,1070.5C 1083.55,1069.8 1079.71,1069.8 1076,1070.5C 1073.03,1069.88 1070.19,1068.88 1067.5,1067.5C 1065.56,1068.53 1064.23,1067.87 1063.5,1065.5C 1064.2,1064.14 1064.2,1062.97 1063.5,1062C 1051.84,1061.04 1040.17,1060.7 1028.5,1061C 1027.17,1061.33 1025.83,1061.67 1024.5,1062C 1024.83,1062.33 1025.17,1062.67 1025.5,1063C 1023.84,1063.98 1022.17,1065.15 1020.5,1066.5C 1018.56,1065.81 1016.56,1065.31 1014.5,1065C 1013.87,1064.25 1013.37,1063.42 1013,1062.5C 1012.69,1063.31 1012.19,1063.97 1011.5,1064.5C 1011.17,1063.83 1010.83,1063.17 1010.5,1062.5C 1009.91,1062.71 1009.41,1063.04 1009,1063.5C 1006.93,1062.74 1004.76,1062.24 1002.5,1062C 1004.29,1061.22 1005.79,1060.05 1007,1058.5C 1007.53,1054.34 1008.53,1050.34 1010,1046.5C 1010.67,1043.17 1010.67,1039.83 1010,1036.5C 1006.55,1025.01 1003.55,1013.68 1001,1002.5C 997.829,993.806 994.663,985.139 991.5,976.5C 992.023,968.787 995.19,962.453 1001,957.5C 1002.33,958.167 1003.67,958.833 1005,959.5C 1005.93,962.362 1007.6,964.695 1010,966.5C 1010.92,968.034 1011.42,969.701 1011.5,971.5C 1012.81,984.881 1012.81,998.214 1011.5,1011.5C 1012.25,1014.78 1012.75,1018.11 1013,1021.5C 1013.65,1020.3 1014.15,1020.3 1014.5,1021.5C 1013.91,1023.74 1013.58,1025.91 1013.5,1028C 1014.82,1031.26 1015.82,1034.6 1016.5,1038C 1015.83,1039.33 1015.17,1040.67 1014.5,1042C 1015.88,1045.73 1017.71,1049.23 1020,1052.5C 1021.62,1051.9 1023.12,1051.23 1024.5,1050.5 Z"/></g>
<g><path style="opacity:1" fill="#792833" d="M 1464.5,1050.5 C 1464.05,1051.46 1463.38,1052.29 1462.5,1053C 1435.39,1057.37 1408.22,1057.54 1381,1053.5C 1379.97,1053.16 1379.47,1052.5 1379.5,1051.5C 1407.88,1051.82 1436.21,1051.48 1464.5,1050.5 Z"/></g>
<g><path style="opacity:1" fill="#8a2736" d="M 993.5,950.5 C 993.662,952.527 993.495,954.527 993,956.5C 988.071,964.872 987.237,973.706 990.5,983C 990.167,983.333 989.833,983.667 989.5,984C 990.264,986.069 990.764,988.236 991,990.5C 991.667,987.833 992.333,987.833 993,990.5C 997.793,1007.56 1002.63,1024.73 1007.5,1042C 1005.84,1044.93 1005.51,1047.93 1006.5,1051C 1004.65,1052.09 1002.98,1053.43 1001.5,1055C 997.445,1055.92 993.779,1057.59 990.5,1060C 987.776,1060.27 985.109,1060.77 982.5,1061.5C 980.349,1060.34 978.349,1060.67 976.5,1062.5C 974.83,1061.01 972.997,1059.67 971,1058.5C 962.678,1057.9 956.678,1053.57 953,1045.5C 952.714,1038.72 951.881,1032.05 950.5,1025.5C 950.55,1022.27 950.55,1018.93 950.5,1015.5C 950.846,1014.3 951.346,1014.3 952,1015.5C 952.914,1019.19 953.581,1018.85 954,1014.5C 954.466,1020.24 954.299,1025.74 953.5,1031C 954.476,1033.12 955.31,1035.28 956,1037.5C 956.333,1036.5 956.667,1035.5 957,1034.5C 957.927,1038.03 959.76,1041.36 962.5,1044.5C 963.481,1046.4 964.481,1048.4 965.5,1050.5C 976.808,1052.99 988.141,1052.99 999.5,1050.5C 1000.56,1045.49 1000.39,1040.49 999,1035.5C 993.264,1013.72 987.764,991.89 982.5,970C 982.796,968.112 983.296,966.278 984,964.5C 987.437,959.941 990.604,955.274 993.5,950.5 Z"/></g>
<g><path style="opacity:1" fill="#862a38" d="M 239.5,1081.5 C 245.626,1083.53 251.959,1084.03 258.5,1083C 257.833,1082.67 257.167,1082.33 256.5,1082C 264.824,1081.22 273.158,1079.88 281.5,1078C 282.025,1077.31 282.692,1076.81 283.5,1076.5C 297.331,1082.17 301.498,1077.83 296,1063.5C 295.628,1046.49 295.128,1029.49 294.5,1012.5C 280.502,1012.08 266.335,1011.75 252,1011.5C 242.762,1011.37 233.596,1011.87 224.5,1013C 223.723,1019.75 223.389,1026.58 223.5,1033.5C 225.221,1036.91 225.888,1040.58 225.5,1044.5C 222.123,1033.19 220.123,1021.53 219.5,1009.5C 244.833,1009.5 270.167,1009.5 295.5,1009.5C 296.857,1036 301.191,1062 308.5,1087.5C 286.508,1088.67 264.508,1088.83 242.5,1088C 241.086,1086.01 240.086,1083.84 239.5,1081.5 Z"/></g>
<g><path style="opacity:1" fill="#8b2836" d="M 740.5,1089.5 C 747.893,1109.51 755.393,1129.51 763,1149.5C 763.973,1151.64 765.473,1153.31 767.5,1154.5C 768.478,1154.02 769.311,1153.36 770,1152.5C 777.863,1132.58 785.53,1112.58 793,1092.5C 793.667,1090.5 793.667,1088.5 793,1086.5C 788.702,1085.08 786.035,1086.75 785,1091.5C 779.386,1107.68 773.386,1123.68 767,1139.5C 760.839,1122.51 754.672,1105.51 748.5,1088.5C 748.238,1087.02 748.571,1085.69 749.5,1084.5C 754.534,1085.88 758.368,1088.22 761,1091.5C 762.202,1095.61 763.702,1099.61 765.5,1103.5C 765.167,1104.17 764.833,1104.83 764.5,1105.5C 765.831,1106.59 766.664,1107.93 767,1109.5C 768.461,1103.86 769.961,1097.86 771.5,1091.5C 773.497,1087.3 776.497,1084.14 780.5,1082C 783.613,1082.05 786.113,1080.89 788,1078.5C 792.365,1079.76 796.365,1081.76 800,1084.5C 800.269,1087.35 801.103,1090.02 802.5,1092.5C 801.749,1097.58 800.582,1102.58 799,1107.5C 793.74,1119.89 789.406,1132.55 786,1145.5C 783.785,1150.1 780.952,1154.27 777.5,1158C 775.905,1157.38 774.572,1157.72 773.5,1159C 773.833,1159.33 774.167,1159.67 774.5,1160C 772.487,1161.26 770.321,1162.09 768,1162.5C 763.151,1160.76 758.817,1158.09 755,1154.5C 750.96,1145.34 747.793,1136.17 745.5,1127C 742.996,1121.48 740.496,1115.98 738,1110.5C 737.395,1104.75 735.895,1099.09 733.5,1093.5C 733.404,1091.07 734.07,1088.91 735.5,1087C 737.955,1086.29 739.622,1087.13 740.5,1089.5 Z"/></g>
<g><path style="opacity:1" fill="#ae7b7f" d="M 388.5,1009.5 C 389.498,1035.99 389.831,1062.66 389.5,1089.5C 369.66,1089.83 349.993,1089.5 330.5,1088.5C 349.833,1088.5 369.167,1088.5 388.5,1088.5C 388.5,1080.17 388.5,1071.83 388.5,1063.5C 388.5,1045.5 388.5,1027.5 388.5,1009.5 Z"/></g>
<g><path style="opacity:1" fill="#f7f7f7" d="M 664.5,1085.5 C 677.5,1085.5 690.5,1085.5 703.5,1085.5C 703.5,1087.5 703.5,1089.5 703.5,1091.5C 692.918,1091.18 682.418,1091.51 672,1092.5C 671.187,1100.08 671.353,1107.58 672.5,1115C 681.494,1115.5 690.494,1115.67 699.5,1115.5C 699.739,1117.47 699.406,1119.3 698.5,1121C 689.589,1121.18 680.755,1121.68 672,1122.5C 671.667,1132.5 671.333,1142.5 671,1152.5C 668.936,1153.59 666.769,1153.76 664.5,1153C 663.172,1130.5 663.172,1108 664.5,1085.5 Z"/></g>
<g><path style="opacity:1" fill="#f8f8f8" d="M 1072.5,1084.5 C 1073.82,1084.33 1074.99,1084.66 1076,1085.5C 1084.94,1105.72 1093.61,1126.05 1102,1146.5C 1103.67,1153.18 1101.67,1154.85 1096,1151.5C 1093.72,1146.61 1091.72,1141.61 1090,1136.5C 1089.5,1135.33 1088.67,1134.5 1087.5,1134C 1078.17,1133.33 1068.83,1133.33 1059.5,1134C 1056.62,1139.28 1054.12,1144.78 1052,1150.5C 1049.07,1154.45 1046.24,1154.45 1043.5,1150.5C 1052.79,1128.27 1062.46,1106.27 1072.5,1084.5 Z"/></g>
<g><path style="opacity:1" fill="#8a2b37" d="M 1216.5,1071.5 C 1222.34,1070.7 1227.34,1072.2 1231.5,1076C 1234.76,1075.04 1237.26,1076.21 1239,1079.5C 1240.62,1085.44 1240.12,1091.27 1237.5,1097C 1238.48,1098.66 1239.48,1100.32 1240.5,1102C 1239.17,1103 1239.17,1104 1240.5,1105C 1238.61,1106.1 1237.94,1107.43 1238.5,1109C 1243.75,1115.5 1247.09,1122.83 1248.5,1131C 1248.33,1132.17 1248.17,1133.33 1248,1134.5C 1247.83,1132.29 1247.16,1130.29 1246,1128.5C 1246.36,1133.81 1246.36,1139.14 1246,1144.5C 1241.91,1150.59 1237.08,1156.09 1231.5,1161C 1223.92,1163.79 1216.26,1164.12 1208.5,1162C 1204.33,1158.5 1200.17,1155 1196,1151.5C 1195.5,1150 1195,1148.5 1194.5,1147C 1195.72,1145.28 1196.72,1143.45 1197.5,1141.5C 1197.08,1140.33 1196.41,1139.33 1195.5,1138.5C 1197.36,1134.6 1199.36,1130.77 1201.5,1127C 1198.83,1123.5 1196.83,1119.67 1195.5,1115.5C 1195.71,1114.91 1196.04,1114.41 1196.5,1114C 1194.01,1110.35 1192.34,1106.35 1191.5,1102C 1192.96,1095.67 1194.79,1089.84 1197,1084.5C 1199.17,1083 1201.33,1081.5 1203.5,1080C 1202.94,1078.43 1203.61,1077.1 1205.5,1076C 1209.02,1073.9 1212.69,1072.4 1216.5,1071.5 Z"/></g>
<g><path style="opacity:1" fill="#f7f7f6" d="M 1213.5,1083.5 C 1221.5,1081.95 1228.34,1083.95 1234,1089.5C 1236.35,1092.72 1236.01,1095.39 1233,1097.5C 1230.07,1096.28 1227.57,1094.45 1225.5,1092C 1218.51,1088 1213.01,1089.5 1209,1096.5C 1208.15,1100.63 1208.48,1104.63 1210,1108.5C 1211.21,1110.05 1212.71,1111.22 1214.5,1112C 1236.04,1113.86 1243.54,1125.03 1237,1145.5C 1229.3,1155.76 1219.47,1158.26 1207.5,1153C 1201.65,1150.31 1199.65,1145.98 1201.5,1140C 1202.83,1139.33 1204.17,1139.33 1205.5,1140C 1209.06,1145.24 1213.89,1148.41 1220,1149.5C 1230.1,1146.66 1234.1,1139.99 1232,1129.5C 1231.39,1126.45 1229.89,1123.95 1227.5,1122C 1221.13,1120.41 1214.8,1118.75 1208.5,1117C 1201.15,1109.54 1199.65,1101.04 1204,1091.5C 1206.79,1088.19 1209.96,1085.52 1213.5,1083.5 Z"/></g>
<g><path style="opacity:1" fill="#f6f7f7" d="M 748.5,1088.5 C 754.672,1105.51 760.839,1122.51 767,1139.5C 773.386,1123.68 779.386,1107.68 785,1091.5C 786.035,1086.75 788.702,1085.08 793,1086.5C 793.667,1088.5 793.667,1090.5 793,1092.5C 785.53,1112.58 777.863,1132.58 770,1152.5C 769.311,1153.36 768.478,1154.02 767.5,1154.5C 765.473,1153.31 763.973,1151.64 763,1149.5C 755.393,1129.51 747.893,1109.51 740.5,1089.5C 740.077,1086.76 741.244,1085.42 744,1085.5C 746.209,1085.56 747.709,1086.56 748.5,1088.5 Z"/></g>
<g><path style="opacity:1" fill="#8a2c37" d="M 927.5,1072.5 C 934.835,1073.87 941.001,1077.21 946,1082.5C 948.733,1086.39 948.9,1090.22 946.5,1094C 947.056,1096.24 948.056,1098.24 949.5,1100C 948.31,1103.51 946.31,1104.18 943.5,1102C 943.833,1101 944.167,1100 944.5,1099C 943.275,1098.44 942.275,1098.77 941.5,1100C 942.747,1101.46 942.747,1102.96 941.5,1104.5C 942.325,1105.39 943.325,1105.72 944.5,1105.5C 944.662,1107.53 944.495,1109.53 944,1111.5C 942.006,1112.28 940.172,1112.61 938.5,1112.5C 942.82,1115.44 946.987,1118.77 951,1122.5C 953.101,1129.71 953.768,1137.04 953,1144.5C 947.005,1155.31 938.005,1161.65 926,1163.5C 921.995,1162.97 918.161,1161.81 914.5,1160C 910.5,1156 906.5,1152 902.5,1148C 902.132,1146.53 902.632,1145.03 904,1143.5C 905.016,1144.63 905.683,1144.3 906,1142.5C 906.494,1140.87 906.66,1139.2 906.5,1137.5C 908.46,1136.86 910.293,1136.86 912,1137.5C 913.688,1135.96 915.688,1134.96 918,1134.5C 919.666,1135.34 919.833,1134.84 918.5,1133C 917.552,1132.52 916.552,1132.35 915.5,1132.5C 915.297,1130.61 915.963,1129.11 917.5,1128C 915.421,1125.72 913.087,1123.89 910.5,1122.5C 911.376,1121.75 912.376,1121.25 913.5,1121C 908.857,1117.23 905.024,1112.73 902,1107.5C 899.225,1087.74 907.725,1076.07 927.5,1072.5 Z"/></g>
<g><path style="opacity:1" fill="#f7f7f6" d="M 920.5,1083.5 C 928.779,1082 935.946,1084 942,1089.5C 943.373,1091.7 943.706,1094.03 943,1096.5C 942.275,1097.06 941.442,1097.39 940.5,1097.5C 936.995,1094.84 933.328,1092.34 929.5,1090C 921.106,1088.87 916.439,1092.54 915.5,1101C 915.843,1105.02 917.509,1108.35 920.5,1111C 926.976,1112.54 933.31,1114.54 939.5,1117C 949.808,1127.95 950.141,1139.28 940.5,1151C 931.139,1156.95 921.805,1156.95 912.5,1151C 908.965,1148.29 907.798,1144.79 909,1140.5C 909.725,1139.94 910.558,1139.61 911.5,1139.5C 914.927,1142.14 918.26,1144.97 921.5,1148C 934.512,1150.33 940.678,1144.83 940,1131.5C 938.974,1127.28 936.807,1123.78 933.5,1121C 926.903,1120.25 920.569,1118.58 914.5,1116C 905.303,1102.98 907.303,1092.14 920.5,1083.5 Z"/></g>
<g><path style="opacity:1" fill="#99343f" d="M 1072.5,1098.5 C 1073.75,1098.58 1074.58,1099.24 1075,1100.5C 1079.07,1109.31 1082.57,1118.31 1085.5,1127.5C 1077.83,1127.5 1070.17,1127.5 1062.5,1127.5C 1065.43,1117.71 1068.76,1108.05 1072.5,1098.5 Z"/></g>
<g><path style="opacity:1" fill="#f3f3f3" d="M 994.5,1143.5 C 998.273,1142.82 1001.11,1144.16 1003,1147.5C 1003.94,1152.9 1001.6,1155.57 996,1155.5C 990.977,1154.46 989.31,1151.46 991,1146.5C 992.145,1145.36 993.312,1144.36 994.5,1143.5 Z"/></g>
<g><path style="opacity:1" fill="#f6f5f5" d="M 1148.5,1143.5 C 1156.98,1144.24 1158.65,1148.07 1153.5,1155C 1149.89,1155.8 1146.73,1154.96 1144,1152.5C 1143.05,1148.28 1144.55,1145.28 1148.5,1143.5 Z"/></g>
<g><path style="opacity:1" fill="#892635" d="M 199.5,991.5 C 198.425,1054.15 220.758,1106.65 266.5,1149C 325.912,1198.13 392.579,1211.13 466.5,1188C 526.597,1164.74 567.597,1122.9 589.5,1062.5C 588.455,1068.15 587.288,1073.82 586,1079.5C 577.576,1094.35 569.076,1109.02 560.5,1123.5C 562.143,1123.52 563.476,1122.85 564.5,1121.5C 564.694,1123.07 564.694,1124.57 564.5,1126C 562.699,1126.32 562.366,1126.98 563.5,1128C 561.232,1129.56 560.066,1131.72 560,1134.5C 555.977,1140.01 551.81,1145.35 547.5,1150.5C 539.393,1156.76 531.393,1163.26 523.5,1170C 520.095,1171.45 516.928,1173.28 514,1175.5C 512.113,1173.31 509.947,1173.14 507.5,1175C 508.22,1177.12 509.387,1177.62 511,1176.5C 511.667,1177.17 511.667,1177.83 511,1178.5C 509.197,1178.09 507.364,1178.59 505.5,1180C 503.365,1182.79 500.865,1184.29 498,1184.5C 497.167,1185.33 496.333,1186.17 495.5,1187C 491.344,1187.82 487.511,1189.32 484,1191.5C 482.084,1188.97 480.084,1188.97 478,1191.5C 477.667,1191.17 477.333,1190.83 477,1190.5C 474.808,1192.24 472.308,1193.4 469.5,1194C 464.766,1194.68 460.1,1195.68 455.5,1197C 428.614,1207.63 400.781,1210.46 372,1205.5C 369.958,1205.62 367.958,1205.95 366,1206.5C 364.503,1205.52 363.003,1204.52 361.5,1203.5C 355.733,1202.32 350.066,1200.82 344.5,1199C 341.106,1198.25 337.773,1198.41 334.5,1199.5C 333.459,1197.01 332.626,1197.01 332,1199.5C 320.95,1197.74 310.116,1193.91 299.5,1188C 288.327,1178.92 276.661,1170.59 264.5,1163C 246.005,1146.19 230.171,1127.36 217,1106.5C 209.066,1089.7 202.899,1072.2 198.5,1054C 199.416,1048.57 199.749,1043.23 199.5,1038C 198.833,1037.33 198.167,1036.67 197.5,1036C 198.767,1034.2 198.767,1032.37 197.5,1030.5C 198.4,1028.07 199.066,1025.57 199.5,1023C 198.214,1012.35 198.214,1001.85 199.5,991.5 Z"/></g>
<g><path style="opacity:1" fill="#7d2937" d="M 482.5,1109.5 C 500.503,1109.33 518.503,1109.5 536.5,1110C 537.305,1111.11 537.972,1112.28 538.5,1113.5C 515.735,1142.06 486.735,1161.39 451.5,1171.5C 458.945,1168.07 466.612,1164.9 474.5,1162C 475.257,1160.49 476.257,1159.15 477.5,1158C 485.218,1155.97 492.218,1152.64 498.5,1148C 498.043,1147.59 497.709,1147.09 497.5,1146.5C 504.572,1140.61 511.572,1134.44 518.5,1128C 520.828,1126.68 523.161,1125.34 525.5,1124C 528.161,1120.67 531.161,1117.67 534.5,1115C 533.576,1113.85 533.576,1112.85 534.5,1112C 533.5,1111.67 532.5,1111.33 531.5,1111C 515.833,1110.33 500.167,1110.33 484.5,1111C 482.58,1113.46 480.747,1115.96 479,1118.5C 474.623,1128.09 470.123,1137.59 465.5,1147C 462.638,1151.03 459.305,1154.53 455.5,1157.5C 465.557,1142.05 474.557,1126.05 482.5,1109.5 Z"/></g>
<g><path style="opacity:1" fill="#8c2d3a" d="M 389.5,1174.5 C 389.657,1175.87 389.49,1177.21 389,1178.5C 369.816,1161.49 354.649,1141.49 343.5,1118.5C 344.436,1115.62 346.103,1113.29 348.5,1111.5C 348.736,1112.25 349.07,1113.08 349.5,1114C 346.331,1114.86 346.665,1116.2 350.5,1118C 352.677,1118.34 354.677,1117.84 356.5,1116.5C 358.819,1117.06 361.153,1117.56 363.5,1118C 363.167,1118.33 362.833,1118.67 362.5,1119C 364.861,1119.2 366.528,1120.36 367.5,1122.5C 367.452,1126.02 367.285,1129.69 367,1133.5C 368.808,1133.89 370.475,1133.89 372,1133.5C 372.456,1134.74 371.956,1135.58 370.5,1136C 370.725,1138.32 372.058,1140.32 374.5,1142C 373.639,1145.84 375.305,1148.18 379.5,1149C 378.5,1149.33 377.5,1149.67 376.5,1150C 379.556,1151.89 381.556,1151.39 382.5,1148.5C 382.054,1146.63 381.721,1144.8 381.5,1143C 383.054,1140.78 384.054,1138.28 384.5,1135.5C 385.325,1134.61 386.325,1134.28 387.5,1134.5C 388.702,1147.2 388.702,1159.86 387.5,1172.5C 387.855,1173.52 388.522,1174.19 389.5,1174.5 Z"/></g>
<g><path style="opacity:1" fill="#8b303e" d="M 409.5,1108.5 C 426.513,1108.17 443.513,1108.5 460.5,1109.5C 447.68,1135.64 430.68,1158.64 409.5,1178.5C 409.457,1155.27 409.457,1131.93 409.5,1108.5 Z"/></g>
<g><path style="opacity:1" fill="#8b2c3b" d="M 255.5,1109.5 C 275.996,1108.34 296.663,1108.17 317.5,1109C 327.039,1133.43 340.372,1155.43 357.5,1175C 329.635,1167.9 304.635,1155.23 282.5,1137C 273.27,1127.94 264.27,1118.77 255.5,1109.5 Z"/></g>
<g><path style="opacity:1" fill="#8a2c3e" d="M 451.5,1171.5 C 448.989,1172.39 446.489,1173.39 444,1174.5C 443.5,1174.17 443,1173.83 442.5,1173.5C 446.887,1168.12 451.22,1162.79 455.5,1157.5C 459.305,1154.53 462.638,1151.03 465.5,1147C 470.123,1137.59 474.623,1128.09 479,1118.5C 480.747,1115.96 482.58,1113.46 484.5,1111C 500.167,1110.33 515.833,1110.33 531.5,1111C 532.5,1111.33 533.5,1111.67 534.5,1112C 533.576,1112.85 533.576,1113.85 534.5,1115C 531.161,1117.67 528.161,1120.67 525.5,1124C 523.161,1125.34 520.828,1126.68 518.5,1128C 511.572,1134.44 504.572,1140.61 497.5,1146.5C 497.709,1147.09 498.043,1147.59 498.5,1148C 492.218,1152.64 485.218,1155.97 477.5,1158C 476.257,1159.15 475.257,1160.49 474.5,1162C 466.612,1164.9 458.945,1168.07 451.5,1171.5 Z"/></g>
<g><path style="opacity:1" fill="#903743" d="M 389.5,1174.5 C 388.522,1174.19 387.855,1173.52 387.5,1172.5C 388.702,1159.86 388.702,1147.2 387.5,1134.5C 386.325,1134.28 385.325,1134.61 384.5,1135.5C 384.054,1138.28 383.054,1140.78 381.5,1143C 381.721,1144.8 382.054,1146.63 382.5,1148.5C 381.556,1151.39 379.556,1151.89 376.5,1150C 377.5,1149.67 378.5,1149.33 379.5,1149C 375.305,1148.18 373.639,1145.84 374.5,1142C 372.058,1140.32 370.725,1138.32 370.5,1136C 371.956,1135.58 372.456,1134.74 372,1133.5C 370.475,1133.89 368.808,1133.89 367,1133.5C 367.285,1129.69 367.452,1126.02 367.5,1122.5C 366.528,1120.36 364.861,1119.2 362.5,1119C 362.833,1118.67 363.167,1118.33 363.5,1118C 361.153,1117.56 358.819,1117.06 356.5,1116.5C 354.677,1117.84 352.677,1118.34 350.5,1118C 346.665,1116.2 346.331,1114.86 349.5,1114C 349.07,1113.08 348.736,1112.25 348.5,1111.5C 346.103,1113.29 344.436,1115.62 343.5,1118.5C 341.465,1115.6 339.799,1112.43 338.5,1109C 355.497,1108.5 372.497,1108.33 389.5,1108.5C 389.5,1130.5 389.5,1152.5 389.5,1174.5 Z"/></g>
<g><path style="opacity:1" fill="#7a3c45" d="M 482.5,1109.5 C 502.329,1108.34 522.329,1108.17 542.5,1109C 541.672,1110.99 540.339,1112.49 538.5,1113.5C 537.972,1112.28 537.305,1111.11 536.5,1110C 518.503,1109.5 500.503,1109.33 482.5,1109.5 Z"/></g>
<g><path style="opacity:1" fill="#c7959c" d="M 490.5,1087.5 C 511.66,1088.5 532.993,1088.83 554.5,1088.5C 532.996,1089.83 511.33,1089.83 489.5,1088.5C 489.624,1087.89 489.957,1087.56 490.5,1087.5 Z"/></g>
</svg>
